<svg version="1.1" baseProfile="full" xmlns="http://www.w3.org/2000/svg" xmlns:xlink="http://www.w3.org/1999/xlink" xmlns:ev="http://www.w3.org/2001/xml-events" xml:space="preserve" x="0px" y="0px" width="21px" height="21px"  viewBox="0 0 21 21" preserveAspectRatio="none" shape-rendering="geometricPrecision">"<path d="M7.50001 5.56327C8.7358 5.56327 9.75853 6.56493 9.75853 7.77526C9.75853 8.98559 8.7358 9.98724 7.50001 9.98724C6.26421 9.98724 5.24148 8.98559 5.24148 7.77526C5.24148 6.56493 6.26421 5.56327 7.50001 5.56327ZM7.50001 4.31121C5.53978 4.31121 3.96308 5.85542 3.96308 7.77526C3.96308 9.69509 5.53978 11.2393 7.50001 11.2393C9.46024 11.2393 11.0369 9.69509 11.0369 7.77526C10.9943 5.85542 9.41762 4.31121 7.50001 4.31121Z" fill="#f7e4d7"/><path d="M7.5 20.4627C7.2017 20.4627 6.94602 20.3375 6.77557 20.0871L1.15057 11.6983C0.383523 10.5297 0 9.15242 0 7.77514C0 3.7268 3.36648 0.429688 7.5 0.429688C11.6335 0.429688 15 3.7268 15 7.77514C15 9.15242 14.6165 10.5297 13.8494 11.6983L8.22443 20.0871C8.05398 20.3375 7.7983 20.4627 7.5 20.4627ZM7.5 2.09911C4.30398 2.09911 1.70455 4.64498 1.70455 7.77514C1.70455 8.86027 2.00284 9.90366 2.59943 10.8218L7.5 18.1256L12.4006 10.8218C12.9972 9.90366 13.2955 8.86027 13.2955 7.77514C13.2955 4.64498 10.696 2.09911 7.5 2.09911Z" fill="#f7e4d7"/></svg>