<svg version="1.1" baseProfile="full" xmlns="http://www.w3.org/2000/svg" xmlns:xlink="http://www.w3.org/1999/xlink" xmlns:ev="http://www.w3.org/2001/xml-events" xml:space="preserve" x="0px" y="0px" width="15px" height="25px"  viewBox="0 0 15 25" preserveAspectRatio="none" shape-rendering="geometricPrecision"><path opacity="0.5" d="M11.9 -1.12692e-05C12.4 -1.1313e-05 12.9 0.199987 13.3 0.599987C14.1 1.39999 14.1 2.59999 13.3 3.39999L4.79999 11.9L13.3 20.4C14.1 21.2 14.1 22.4 13.3 23.2C12.5 24 11.3 24 10.5 23.2L0.599994 13.3C0.199994 12.9 -6.71867e-06 12.4 -6.76238e-06 11.9C-6.80609e-06 11.4 0.199994 10.9 0.599993 10.5L10.5 0.599987C10.9 0.199988 11.4 -1.12255e-05 11.9 -1.12692e-05Z" fill="#000"/></svg>