<svg version="1.1" baseProfile="full" xmlns="http://www.w3.org/2000/svg" xmlns:xlink="http://www.w3.org/1999/xlink" xmlns:ev="http://www.w3.org/2001/xml-events" xml:space="preserve" x="0px" y="0px" width="11px" height="18px"  viewBox="0 0 11 18" preserveAspectRatio="none" shape-rendering="geometricPrecision"><path opacity="1" d="M9.41727 -2.46751e-06C9.81295 -2.5021e-06 10.2086 0.151257 10.5252 0.453778C11.1583 1.05882 11.1583 1.96638 10.5252 2.57142L3.79856 9L10.5252 15.4286C11.1583 16.0336 11.1583 16.9412 10.5252 17.5462C9.89209 18.1513 8.94245 18.1513 8.30935 17.5462L0.474821 10.0588C0.158275 9.7563 8.11755e-07 9.37815 7.78696e-07 9C7.45637e-07 8.62185 0.158274 8.2437 0.474821 7.94118L8.30935 0.453778C8.6259 0.151257 9.02158 -2.43292e-06 9.41727 -2.46751e-06Z" fill="#fff"/></svg>