<svg version="1.1" baseProfile="full" xmlns="http://www.w3.org/2000/svg" xmlns:xlink="http://www.w3.org/1999/xlink" xmlns:ev="http://www.w3.org/2001/xml-events" xml:space="preserve" x="0px" y="0px" width="25px" height="23px"  viewBox="0 0 25 23" preserveAspectRatio="none" shape-rendering="geometricPrecision"><path d="M21.875 17.25H8.855c-.47 0-.886-.314-.99-.784L5.208 5.489v-.053l-.833-3.345H1.042a1.047 1.047 0 010-2.091h4.166c.47 0 .886.314.99.784l.833 3.398h16.927c.313 0 .625.157.782.366.208.261.26.575.208.836l-2.083 10.977a.972.972 0 01-.99.889zM9.687 15.16h11.355l1.666-8.887H7.552l2.136 8.886zM10.781 23c1.007 0 1.823-.82 1.823-1.83 0-1.01-.816-1.83-1.823-1.83-1.007 0-1.823.82-1.823 1.83 0 1.01.816 1.83 1.823 1.83zM20.156 23c1.007 0 1.823-.82 1.823-1.83 0-1.01-.816-1.83-1.823-1.83-1.006 0-1.823.82-1.823 1.83 0 1.01.817 1.83 1.823 1.83z" fill="#fff"/></svg>