<svg version="1.1" baseProfile="full" xmlns="http://www.w3.org/2000/svg" xmlns:xlink="http://www.w3.org/1999/xlink" xmlns:ev="http://www.w3.org/2001/xml-events" xml:space="preserve" x="0px" y="0px" width="25px" height="25px"  viewBox="0 0 25 25" preserveAspectRatio="none" shape-rendering="geometricPrecision"><path opacity="0.2" d="M22.0238 2.9762h-1.1905V1.7857C20.8333.7738 20.0595 0 19.0476 0s-1.7857.7738-1.7857 1.7857v1.1905H7.7381V1.7857C7.7381.7738 6.9643 0 5.9524 0c-1.012 0-1.7857.7738-1.7857 1.7857v1.1905H2.9762C1.3095 2.9762 0 4.2857 0 5.9524v16.0714C0 23.6905 1.3095 25 2.9762 25h19.0476C23.6905 25 25 23.6905 25 22.0238V5.9524c0-1.6667-1.3095-2.9762-2.9762-2.9762zm0 18.4524c0 .3571-.2976.5952-.5952.5952H3.5714c-.2976 0-.5952-.2381-.5952-.5952V9.5238c0-.3571.2976-.5952.5952-.5952h17.8572c.2976 0 .5952.238.5952.5952v11.9048z"/><path opacity="0.2" d="M7.1429 14.2857c.6574 0 1.1904-.533 1.1904-1.1905 0-.6574-.533-1.1904-1.1904-1.1904-.6575 0-1.1905.533-1.1905 1.1904 0 .6575.533 1.1905 1.1905 1.1905zM7.1429 19.0476c.6574 0 1.1904-.533 1.1904-1.1905 0-.6574-.533-1.1904-1.1904-1.1904-.6575 0-1.1905.533-1.1905 1.1904 0 .6575.533 1.1905 1.1905 1.1905zM12.5 14.2857c.6575 0 1.1905-.533 1.1905-1.1905 0-.6574-.533-1.1904-1.1905-1.1904-.6575 0-1.1905.533-1.1905 1.1904 0 .6575.533 1.1905 1.1905 1.1905zM12.5 19.0476c.6575 0 1.1905-.533 1.1905-1.1905 0-.6574-.533-1.1904-1.1905-1.1904-.6575 0-1.1905.533-1.1905 1.1904 0 .6575.533 1.1905 1.1905 1.1905zM17.8571 14.2857c.6575 0 1.1905-.533 1.1905-1.1905 0-.6574-.533-1.1904-1.1905-1.1904-.6574 0-1.1904.533-1.1904 1.1904 0 .6575.533 1.1905 1.1904 1.1905zM17.8571 19.0476c.6575 0 1.1905-.533 1.1905-1.1905 0-.6574-.533-1.1904-1.1905-1.1904-.6574 0-1.1904.533-1.1904 1.1904 0 .6575.533 1.1905 1.1904 1.1905z"/></svg>