<svg width="44" height="44" viewBox="0 0 32 32" fill="none" xmlns="http://www.w3.org/2000/svg">

<path d="M25.575 16.225C25.575 15.5667 25.5167 14.9417 25.4167 14.3333H16V18.0917H21.3917C21.15 19.325 20.4417 20.3667 19.3917 21.075V23.575H22.6083C24.4917 21.8333 25.575 19.2667 25.575 16.225Z" fill="#4285F4"/>
<path d="M16 26C18.7 26 20.9583 25.1 22.6083 23.575L19.3917 21.075C18.4917 21.675 17.35 22.0417 16 22.0417C13.3917 22.0417 11.1833 20.2833 10.3917 17.9083H7.075V20.4833C8.71666 23.75 12.0917 26 16 26Z" fill="#34A853"/>
<path d="M10.3917 17.9083C10.1833 17.3083 10.075 16.6667 10.075 16C10.075 15.3333 10.1917 14.6917 10.3917 14.0917V11.5167H7.075C6.39167 12.8667 6 14.3833 6 16C6 17.6167 6.39167 19.1333 7.075 20.4833L10.3917 17.9083Z" fill="#FBBC05"/>
<path d="M16 9.95833C17.475 9.95833 18.7917 10.4667 19.8333 11.4583L22.6833 8.60833C20.9583 6.99167 18.7 6 16 6C12.0917 6 8.71666 8.25 7.075 11.5167L10.3917 14.0917C11.1833 11.7167 13.3917 9.95833 16 9.95833Z" fill="#EA4335"/>

</svg>
