<svg width="37" height="37" viewBox="0 0 37 37" fill="none" xmlns="http://www.w3.org/2000/svg">
<path d="M18.5 37C18.2687 37 17.9604 36.9229 17.7292 36.7688L14.1833 34.6875H10.0979C9.55833 34.6875 9.01875 34.3792 8.7875 33.9167L6.70625 30.2938L3.08333 28.2125C2.62083 27.9042 2.3125 27.4417 2.3125 26.9021V22.8167L0.23125 19.2708C-0.0770833 18.8083 -0.0770833 18.1917 0.23125 17.7292L2.3125 14.1833V10.0208C2.3125 9.48125 2.62083 8.94167 3.08333 8.71042L6.62917 6.62917L8.71042 3.08333C9.01875 2.62083 9.48125 2.3125 10.0208 2.3125H14.1833L17.7292 0.23125C18.1917 -0.0770833 18.8083 -0.0770833 19.2708 0.23125L22.8167 2.3125H26.9021C27.4417 2.3125 27.9812 2.62083 28.2125 3.08333L30.2938 6.70625L33.9167 8.7875C34.3792 9.09583 34.6875 9.55833 34.6875 10.0979V14.1833L36.7688 17.7292C37.0771 18.1917 37.0771 18.8083 36.7688 19.2708L34.6875 22.8167V26.9792C34.6875 27.5188 34.3792 28.0583 33.9167 28.2896L30.3708 30.3708L28.2896 33.9167C27.9813 34.3792 27.5188 34.6875 26.9792 34.6875H22.8167L19.2708 36.7688C19.0396 36.9229 18.7313 37 18.5 37ZM14.5688 31.6812C14.8771 31.6812 15.1083 31.7583 15.3396 31.9125L18.5 33.7625L21.6604 31.9125C21.8917 31.7583 22.1229 31.6812 22.4313 31.6812H26.1313L27.9813 28.5208C28.1354 28.2896 28.2896 28.0583 28.5208 27.9813L31.6812 26.1313V22.4313C31.6812 22.1229 31.7583 21.8917 31.9125 21.6604L33.7625 18.5L31.9125 15.3396C31.7583 15.1083 31.6812 14.8 31.6812 14.5688V10.9458L28.5208 9.09583C28.2896 8.94167 28.0583 8.7875 27.9813 8.55625L26.1313 5.39583H22.5083C22.2 5.39583 21.9688 5.31875 21.7375 5.16458L18.5 3.31458L15.3396 5.16458C15.1083 5.31875 14.8771 5.39583 14.5688 5.39583H10.8688L9.09583 8.47917C8.94167 8.71042 8.7875 8.94167 8.55625 9.01875L5.39583 10.8688V14.5688C5.39583 14.8771 5.31875 15.1083 5.16458 15.3396L3.31458 18.5L5.16458 21.6604C5.31875 21.8917 5.39583 22.2 5.39583 22.4313V26.0542L8.55625 27.9042C8.7875 28.0583 9.01875 28.2125 9.09583 28.4438L10.9458 31.6042L14.5688 31.6812Z" fill="#F09BBF"></path>
<path d="M11.5625 26.5937C11.2542 26.5937 10.9458 26.5166 10.7146 26.2854C10.2521 25.8229 10.2521 25.1291 10.7146 24.6666L24.5896 10.7916C25.0521 10.3291 25.7458 10.3291 26.2083 10.7916C26.6708 11.2541 26.6708 11.9479 26.2083 12.4104L12.3333 26.2854C12.1792 26.5166 11.8708 26.5937 11.5625 26.5937Z" fill="#F09BBF"></path>
<path d="M23.2021 22.2C23.7417 22.2 24.2812 22.6625 24.2812 23.2791C24.2812 23.8187 23.8187 24.3583 23.2021 24.3583C22.5854 24.3583 22.1229 23.8958 22.1229 23.2791C22.2 22.6625 22.6625 22.2 23.2021 22.2ZM23.2021 19.8875C21.3521 19.8875 19.8104 21.3521 19.8104 23.2791C19.8104 25.2062 21.275 26.6708 23.2021 26.6708C25.0521 26.6708 26.5937 25.2062 26.5937 23.2791C26.5937 21.3521 25.0521 19.8875 23.2021 19.8875Z" fill="#F09BBF"></path>
<path d="M13.7208 12.7188C14.2604 12.7188 14.8 13.1812 14.8 13.7979C14.8 14.3375 14.3375 14.8771 13.7208 14.8771C13.1042 14.8771 12.6417 14.4146 12.6417 13.7979C12.7187 13.1812 13.1812 12.7188 13.7208 12.7188ZM13.7208 10.4062C11.8708 10.4062 10.3292 11.8708 10.3292 13.7979C10.3292 15.725 11.7937 17.1896 13.7208 17.1896C15.5708 17.1896 17.1125 15.725 17.1125 13.7979C17.1125 11.8708 15.6479 10.4062 13.7208 10.4062Z" fill="#F09BBF"></path>
</svg>