<svg width="35" height="35" viewBox="0 0 35 35" fill="none" xmlns="http://www.w3.org/2000/svg">
<path d="M33.5417 5.77244H25.2292C25.3021 5.4071 25.375 5.04175 25.375 4.67641C25.375 2.119 23.2604 0 20.7083 0C19.3958 0 18.3021 0.511482 17.4271 1.38831C16.5521 0.511482 15.3854 0 14.1458 0C11.5938 0 9.47917 2.119 9.47917 4.67641C9.47917 5.04175 9.55208 5.4071 9.625 5.77244H1.45833C0.65625 5.77244 0 6.43006 0 7.23382V15.2714C0 16.0752 0.65625 16.7328 1.45833 16.7328H2.91667V33.5386C2.91667 34.3424 3.57292 35 4.375 35H30.625C31.4271 35 32.0833 34.3424 32.0833 33.5386V16.7328H33.5417C34.3438 16.7328 35 16.0752 35 15.2714V7.23382C35 6.43006 34.3438 5.77244 33.5417 5.77244ZM20.7083 2.92276C21.6562 2.92276 22.4583 3.72651 22.4583 4.67641C22.4583 5.11482 22.3125 5.48017 22.0208 5.77244H19.3958C19.1042 5.48017 18.9583 5.11482 18.9583 4.67641C18.9583 3.72651 19.7604 2.92276 20.7083 2.92276ZM12.3958 4.67641C12.3958 3.72651 13.1979 2.92276 14.1458 2.92276C15.0938 2.92276 15.8958 3.72651 15.8958 4.67641C15.8958 5.11482 15.75 5.48017 15.4583 5.77244H12.8333C12.5417 5.48017 12.3958 5.11482 12.3958 4.67641ZM2.91667 8.6952H15.3125V13.81H4.375H2.91667V8.6952ZM5.83333 16.7328H15.3125V32.0772H5.83333V16.7328ZM29.1667 32.0772H19.6875V16.7328H29.1667V32.0772ZM32.0833 13.81H30.625H19.6875V8.6952H32.0833V13.81Z" fill="#F09BBF"></path>
</svg>