<svg width="35" height="36" viewBox="0 0 35 36" fill="none" xmlns="http://www.w3.org/2000/svg">
<path d="M33.9062 19.8431H32.8854V13.2619C32.8854 12.4663 32.2292 11.8154 31.4271 11.8154H30.3333V7.47618C30.3333 6.68065 29.6771 6.02976 28.875 6.02976H23.3333C22.0208 3.0646 19.0312 0.967285 15.5312 0.967285C12.0312 0.967285 9.04167 3.0646 7.72917 6.02976H4.375C3.20833 6.02976 2.11458 6.46369 1.23958 7.33154C0.4375 8.12707 0 9.21189 0 10.369V34.235C0 35.0305 0.65625 35.6814 1.45833 35.6814H31.4271C32.2292 35.6814 32.8854 35.0305 32.8854 34.235V28.0877H33.9062C34.4896 28.0877 35 27.5814 35 27.0029V20.9279C35 20.277 34.4896 19.8431 33.9062 19.8431ZM27.4167 8.9226V11.8154H23.6979C23.9167 11.0199 24.0625 10.2244 24.0625 9.42885C24.0625 9.28421 24.0625 9.06724 24.0625 8.9226H27.4167ZM15.5312 3.86013C18.5938 3.86013 21.1458 6.39137 21.1458 9.42885C21.1458 10.2967 20.9271 11.0922 20.5625 11.8154H10.5C10.1354 11.0922 9.91667 10.2244 9.91667 9.42885C9.91667 6.39137 12.3958 3.86013 15.5312 3.86013ZM3.35417 9.35653C3.64583 9.06724 4.01042 8.9226 4.375 8.9226H7C7 9.06724 7 9.28421 7 9.42885C7 10.2244 7.14583 11.0199 7.36458 11.8154H4.375C3.57292 11.8154 2.91667 11.1646 2.91667 10.369C2.91667 10.0074 3.0625 9.64581 3.35417 9.35653ZM29.9688 32.7886H2.91667V14.419C3.35417 14.636 3.86458 14.7083 4.375 14.7083H28.875H29.9688V19.8431H28.5833C26.25 19.8431 24.4271 21.7234 24.4271 23.9654C24.4271 26.2073 26.3229 28.0877 28.5833 28.0877H29.9688V32.7886ZM32.8125 25.9181H28.5833C27.4896 25.9181 26.6146 25.0502 26.6146 23.9654C26.6146 22.8806 27.4896 22.0127 28.5833 22.0127H32.8125V25.9181Z" fill="#F09BBF"></path>
</svg>