<svg width="36" height="25" viewBox="0 0 36 25" fill="none" xmlns="http://www.w3.org/2000/svg">
<path d="M35.7 11.1029L30.675 4.70588C30.375 4.33824 29.925 4.11765 29.475 4.11765H22.35V1.47059C22.35 0.661765 21.675 0 20.85 0H1.5C0.675 0 0 0.661765 0 1.47059C0 2.27941 0.675 2.94118 1.5 2.94118H19.35V19.1176H11.7C11.1 17.4265 9.45 16.1765 7.5 16.1765C5.55 16.1765 3.9 17.4265 3.3 19.1176H1.5C0.675 19.1176 0 19.7794 0 20.5882C0 21.3971 0.675 22.0588 1.5 22.0588H3.3C3.9 23.75 5.55 25 7.5 25C9.45 25 11.1 23.75 11.7 22.0588H22.725C23.325 23.75 24.975 25 26.925 25C28.875 25 30.525 23.75 31.125 22.0588H34.5C35.325 22.0588 36 21.3971 36 20.5882V11.9853C36 11.6912 35.925 11.3971 35.7 11.1029ZM7.5 22.0588C6.675 22.0588 6 21.3971 6 20.5882C6 19.7794 6.675 19.1176 7.5 19.1176C8.325 19.1176 9 19.7794 9 20.5882C9 21.3971 8.325 22.0588 7.5 22.0588ZM27 22.0588C26.175 22.0588 25.5 21.3971 25.5 20.5882C25.5 19.7794 26.175 19.1176 27 19.1176C27.825 19.1176 28.5 19.7794 28.5 20.5882C28.5 21.3971 27.825 22.0588 27 22.0588ZM33 19.1176H31.2C30.6 17.4265 28.95 16.1765 27 16.1765C25.05 16.1765 23.4 17.4265 22.8 19.1176H22.425V7.13235H28.8L33 12.5V19.1176Z" fill="#F09BBF"></path>
<path d="M1.125 8.52941H11.175C11.775 8.52941 12.3 8.01471 12.3 7.42647C12.3 6.83824 11.775 6.32353 11.175 6.32353H1.125C0.525 6.32353 0 6.83824 0 7.42647C0 8.01471 0.525 8.52941 1.125 8.52941Z" fill="#F09BBF"></path>
<path d="M1.125 12.9412H7.425C8.025 12.9412 8.55 12.4265 8.55 11.8382C8.55 11.25 8.025 10.7353 7.425 10.7353H1.125C0.525 10.7353 0 11.25 0 11.8382C0 12.4265 0.525 12.9412 1.125 12.9412Z" fill="#F09BBF"></path>
</svg>