<svg width="44" height="44" viewBox="0 0 32 32" fill="none" xmlns="http://www.w3.org/2000/svg">

<path d="M19.0079 16C19.0079 17.6586 17.6586 19.0079 16 19.0079C14.3414 19.0079 12.9921 17.6586 12.9921 16C12.9921 14.3414 14.3414 12.9921 16 12.9921C17.6586 12.9921 19.0079 14.3414 19.0079 16ZM16 6C10.4857 6 6 10.4857 6 16C6 21.5143 10.4857 26 16 26C18.02 26 19.9679 25.3986 21.6329 24.2607L21.6614 24.2407L20.3143 22.675L20.2914 22.6893C19.01 23.5143 17.5257 23.95 16 23.95C11.6164 23.95 8.05 20.3836 8.05 16C8.05 11.6164 11.6164 8.05 16 8.05C20.3836 8.05 23.95 11.6164 23.95 16C23.95 16.5679 23.8864 17.1429 23.7629 17.7086C23.5114 18.7407 22.7886 19.0564 22.2464 19.015C21.7007 18.9707 21.0621 18.5821 21.0579 17.6307V16.9057V16C21.0579 13.2107 18.7893 10.9421 16 10.9421C13.2107 10.9421 10.9421 13.2107 10.9421 16C10.9421 18.7893 13.2107 21.0579 16 21.0579C17.355 21.0579 18.6257 20.5286 19.5836 19.565C20.1407 20.4321 21.0486 20.9757 22.0821 21.0586C22.1707 21.0657 22.2614 21.0693 22.3507 21.0693C23.0786 21.0693 23.7993 20.8257 24.3807 20.385C24.98 19.9293 25.4279 19.2714 25.675 18.4807C25.7143 18.3529 25.7871 18.0607 25.7871 18.0586L25.7893 18.0479C25.935 17.4136 26 16.7814 26 16C26 10.4857 21.5143 6 16 6" fill="#FF9E00"/>
</svg>
