<svg version="1.1" baseProfile="full" xmlns="http://www.w3.org/2000/svg" xmlns:xlink="http://www.w3.org/1999/xlink" xmlns:ev="http://www.w3.org/2001/xml-events" xml:space="preserve" x="0px" y="0px" width="21px" height="21px"  viewBox="0 0 21 21" preserveAspectRatio="none" shape-rendering="geometricPrecision">"<path d="M20 1.46375C20 1.42305 20 1.42305 20 1.38236C20 1.34167 20 1.34167 20 1.30098C20 1.26028 20 1.26028 19.9583 1.21959C19.9583 1.1789 19.9583 1.1789 19.9167 1.13821C19.9167 1.09752 19.875 1.09752 19.875 1.05682C19.875 1.01613 19.8333 1.01613 19.8333 0.97544V0.934747C19.8333 0.934747 19.8333 0.934747 19.7917 0.894055C19.7917 0.853363 19.75 0.853363 19.75 0.853363L19.7083 0.812671C19.6667 0.812671 19.6667 0.771979 19.625 0.771979C19.5833 0.771979 19.5833 0.731287 19.5417 0.731287C19.5 0.731287 19.5 0.731287 19.4583 0.690594C19.4167 0.690594 19.4167 0.690594 19.375 0.649902C19.3333 0.649902 19.3333 0.649902 19.2917 0.649902C19.25 0.649902 19.25 0.649902 19.2083 0.649902H19.1667H0.833333H0.791667C0.75 0.690594 0.75 0.690594 0.708333 0.690594C0.666667 0.690594 0.666667 0.690594 0.625 0.690594C0.583333 0.690594 0.583333 0.690594 0.541667 0.731287C0.5 0.731287 0.5 0.731287 0.458333 0.771979L0.416667 0.812671C0.375 0.812671 0.375 0.853363 0.333333 0.853363C0.291667 0.853363 0.291667 0.894055 0.25 0.894055C0.208333 0.894055 0.208333 0.934747 0.208333 0.934747C0.208333 0.934747 0.208333 0.934747 0.166667 0.97544C0.166667 0.97544 0.166667 0.97544 0.166667 1.01613C0.166667 1.05682 0.125 1.05682 0.125 1.09752C0.125 1.13821 0.0833333 1.13821 0.0833333 1.1789C0.0833333 1.21959 0.0416667 1.21959 0.0416667 1.26028C0.0416667 1.30098 0.0416667 1.30098 0 1.34167C0 1.38236 0 1.38236 0 1.42305C0 1.46375 0 1.46375 0 1.50444C0 1.46375 0 1.50444 0 1.50444V12.8982C0 13.3459 0.375 13.7121 0.833333 13.7121H19.1667C19.625 13.7121 20 13.3459 20 12.8982V1.46375C20 1.50444 20 1.46375 20 1.46375ZM16.8333 2.31828L11.2917 6.75373C10.5417 7.36411 9.45833 7.36411 8.70833 6.75373L3.16667 2.31828H16.8333ZM1.66667 12.0844V3.21351L7.66667 8.01518C8.33333 8.54418 9.16667 8.82902 10 8.82902C10.8333 8.82902 11.6667 8.54418 12.3333 8.01518L18.3333 3.21351V12.0844H1.66667Z" fill="#f7e4d7"/></svg>