<svg width="44" height="44" viewBox="0 0 32 32" fill="none" xmlns="http://www.w3.org/2000/svg">

<path fill-rule="evenodd" clip-rule="evenodd" d="M10.2398 10.5005C10.2398 7.32911 12.8107 4.75812 15.9822 4.75812C19.1536 4.75812 21.7245 7.32911 21.7245 10.5005C21.7245 13.6719 19.1536 16.2431 15.9822 16.2431C12.8107 16.2431 10.2398 13.6719 10.2398 10.5005ZM13.6084 10.5006C13.6084 11.8115 14.6712 12.8744 15.9822 12.8744C17.2931 12.8744 18.3559 11.8115 18.3559 10.5006C18.3559 9.18959 17.2931 8.1268 15.9822 8.1268C14.6712 8.1268 13.6084 9.18959 13.6084 10.5006Z" fill="white"/>
<path d="M21.7589 19.1968C21.686 19.2553 20.3084 20.3439 18.0095 20.8123L21.4796 24.2515C22.0898 24.8607 22.0905 25.8493 21.4813 26.4596C20.872 27.0697 19.8836 27.0707 19.2732 26.4613L15.9043 23.1806L12.8444 26.4402C12.5381 26.7579 12.1294 26.9178 11.7203 26.9178C11.3301 26.9178 10.9396 26.7726 10.6366 26.4804C10.0159 25.8818 9.99789 24.8934 10.5965 24.2727L13.8902 20.8304C11.5269 20.3731 10.0924 19.2561 10.0185 19.1968C9.34581 18.6574 9.23775 17.6747 9.77724 17.0019C10.3167 16.3292 11.2992 16.2211 11.9721 16.7605C11.9863 16.7721 13.4867 17.8992 15.9042 17.9008C18.3217 17.8992 19.7911 16.7721 19.8053 16.7605C20.4781 16.2211 21.4607 16.3292 22.0001 17.0019C22.5396 17.6747 22.4316 18.6574 21.7589 19.1968Z" fill="white"/>
</svg>
