<svg version="1.1" baseProfile="full" xmlns="http://www.w3.org/2000/svg" xmlns:xlink="http://www.w3.org/1999/xlink" xmlns:ev="http://www.w3.org/2001/xml-events" xml:space="preserve" x="0px" y="0px" width="11px" height="14px"  viewBox="0 0 11 14" preserveAspectRatio="none" shape-rendering="geometricPrecision"><path fill="#262626" d="M9.607,5.086 L9.141,5.086 L9.141,2.721 C9.141,1.221 7.880,-0.007 6.340,-0.007 L4.672,-0.007 C3.132,-0.007 1.872,1.221 1.872,2.721 L1.872,5.086 L1.404,5.086 C0.634,5.086 0.004,5.700 0.004,6.450 L0.004,12.634 C0.004,13.385 0.634,13.998 1.404,13.998 L9.607,13.998 C10.378,13.998 11.008,13.385 11.008,12.634 L11.008,6.450 C11.008,5.700 10.378,5.086 9.607,5.086 ZM2.805,2.721 C2.805,1.716 3.640,0.902 4.672,0.902 L6.340,0.902 C7.371,0.902 8.207,1.716 8.207,2.721 L8.207,5.086 L2.805,5.086 L2.805,2.721 ZM10.074,12.634 C10.074,12.880 9.860,13.088 9.607,13.088 L1.404,13.088 C1.153,13.088 0.938,12.880 0.938,12.634 L0.938,6.450 C0.938,6.204 1.153,5.996 1.404,5.996 L9.607,5.996 C9.860,5.996 10.074,6.204 10.074,6.450 L10.074,12.634 Z"/></svg>