<svg 
 xmlns="http://www.w3.org/2000/svg"
 xmlns:xlink="http://www.w3.org/1999/xlink"
 width="60px" height="40px">
<path fill-rule="evenodd"  fill="rgb(0, 0, 0)"
 d="M42.797,24.668 L41.555,24.668 C41.448,24.668 41.382,24.603 41.382,24.496 L41.382,17.290 L41.278,17.650 C41.278,17.650 38.682,24.559 38.674,24.579 C38.650,24.635 38.599,24.668 38.539,24.668 L37.266,24.668 C37.159,24.668 37.115,24.603 37.115,24.385 L37.115,14.022 C37.115,13.947 37.157,13.872 37.263,13.872 L38.539,13.872 C38.646,13.872 38.689,13.915 38.689,14.022 L38.689,21.386 L38.857,20.837 C38.857,20.837 41.390,13.977 41.400,13.960 C41.427,13.912 41.480,13.872 41.555,13.872 L42.797,13.872 C42.884,13.872 42.949,13.906 42.949,13.964 C42.949,14.022 42.949,24.385 42.949,24.385 C42.949,24.580 42.906,24.668 42.797,24.668 ZM36.052,15.239 L32.995,15.239 L32.995,24.496 C32.995,24.603 32.933,24.668 32.845,24.668 L31.477,24.668 C31.371,24.668 31.328,24.603 31.328,24.496 L31.328,14.022 C31.328,13.936 31.393,13.872 31.501,13.872 L36.052,13.872 C36.138,13.872 36.202,13.936 36.202,14.022 C36.202,14.022 36.202,14.978 36.202,15.088 C36.202,15.198 36.115,15.239 36.052,15.239 ZM26.514,24.667 L24.484,24.667 C24.300,24.667 24.224,24.610 24.224,24.478 L24.224,14.027 C24.224,13.934 24.263,13.878 24.376,13.878 L25.763,13.878 C25.838,13.878 25.894,13.953 25.894,14.010 L25.894,17.765 C25.894,17.765 26.158,17.765 26.407,17.765 C28.397,17.765 29.924,18.634 29.924,21.078 C29.924,23.605 28.372,24.667 26.514,24.667 ZM26.368,19.077 L25.894,19.077 L25.894,23.378 L26.442,23.378 C27.594,23.378 28.332,22.555 28.332,21.097 C28.332,19.919 27.613,19.077 26.368,19.077 ZM26.745,9.525 C25.513,9.525 24.653,8.462 24.653,6.615 C24.653,4.475 25.550,3.106 26.708,3.106 C27.003,3.106 27.348,3.155 27.852,3.411 C27.926,3.448 27.975,3.484 27.975,3.533 C27.975,3.570 27.962,3.607 27.939,3.644 L27.605,4.182 C27.569,4.242 27.532,4.268 27.495,4.268 C27.458,4.268 27.434,4.255 27.397,4.218 C27.065,3.913 26.856,3.864 26.683,3.864 C26.044,3.864 25.661,5.099 25.661,6.346 C25.661,7.765 26.117,8.657 27.052,8.657 C27.532,8.657 27.864,8.524 27.926,8.524 C27.962,8.524 27.975,8.535 27.986,8.572 L28.086,8.988 C28.098,9.036 28.086,9.085 28.037,9.122 C27.815,9.281 27.262,9.525 26.745,9.525 ZM23.636,9.378 C23.476,9.378 23.365,9.342 23.290,9.195 L21.888,6.334 C21.863,6.285 21.839,6.248 21.802,6.224 L21.802,9.293 C21.802,9.342 21.778,9.378 21.728,9.378 L20.928,9.378 C20.879,9.378 20.854,9.330 20.854,9.293 L20.854,3.338 C20.854,3.288 20.891,3.253 20.928,3.253 L21.728,3.253 C21.778,3.253 21.802,3.288 21.802,3.338 L21.802,6.028 C21.863,5.992 21.925,5.907 21.986,5.771 L23.095,3.484 C23.167,3.326 23.242,3.253 23.450,3.253 L24.176,3.253 C24.226,3.253 24.237,3.301 24.214,3.338 L22.737,6.016 L24.460,9.293 C24.484,9.330 24.472,9.378 24.423,9.378 L23.636,9.378 ZM22.244,14.022 L22.244,24.496 C22.244,24.580 22.200,24.668 22.092,24.668 L20.748,24.668 C20.638,24.668 20.574,24.603 20.574,24.496 L20.574,19.497 L18.079,19.497 L18.079,24.496 C18.079,24.603 18.016,24.668 17.929,24.668 L16.561,24.668 C16.454,24.668 16.411,24.603 16.411,24.496 L16.411,14.022 C16.411,13.936 16.475,13.872 16.583,13.872 L17.929,13.872 C18.037,13.872 18.079,13.915 18.079,14.022 L18.079,18.137 L20.574,18.137 L20.574,14.022 C20.574,13.957 20.638,13.872 20.748,13.872 L22.092,13.872 C22.178,13.872 22.244,13.936 22.244,14.022 ZM17.298,6.472 C17.298,6.472 17.298,6.615 17.298,6.762 C17.298,7.838 17.740,8.657 18.689,8.657 C19.192,8.657 19.550,8.524 19.599,8.524 C19.660,8.524 19.685,8.547 19.697,8.597 L19.796,9.011 C19.808,9.061 19.796,9.097 19.747,9.122 C19.476,9.293 18.947,9.525 18.344,9.525 C17.114,9.525 16.276,8.425 16.276,6.578 C16.276,4.770 16.867,3.106 18.195,3.106 C19.181,3.106 19.858,4.121 19.858,6.016 L19.858,6.530 L18.061,6.530 C17.777,6.530 17.298,6.472 17.298,6.472 ZM18.860,5.342 C18.799,4.402 18.552,3.864 18.159,3.864 C17.729,3.864 17.470,4.389 17.360,5.429 C17.334,5.624 17.334,5.807 17.334,5.807 C17.334,5.807 17.777,5.759 18.061,5.759 L18.874,5.759 C18.874,5.759 18.874,5.538 18.860,5.342 ZM15.637,10.577 L15.008,10.577 C14.960,10.577 14.922,10.541 14.922,10.492 L14.922,9.378 L12.289,9.378 L12.289,10.394 C12.289,10.481 12.239,10.577 12.105,10.577 L11.514,10.577 C11.476,10.577 11.427,10.554 11.427,10.492 C11.427,10.174 11.427,8.706 11.427,8.706 C11.427,8.645 11.453,8.608 11.527,8.608 L11.797,8.608 C12.585,7.165 12.671,5.258 12.671,3.778 L12.671,3.338 C12.671,3.288 12.707,3.253 12.768,3.253 L15.230,3.253 C15.279,3.253 15.304,3.276 15.304,3.338 L15.304,8.388 C15.304,8.535 15.354,8.608 15.538,8.608 L15.686,8.608 C15.747,8.608 15.784,8.645 15.784,8.706 L15.784,10.394 C15.784,10.516 15.711,10.577 15.637,10.577 ZM14.356,4.023 L13.569,4.023 C13.569,4.231 13.557,4.561 13.531,4.878 C13.445,6.346 13.200,7.543 12.572,8.608 L14.356,8.608 L14.356,4.023 ZM10.665,9.378 L9.901,9.378 C9.840,9.378 9.803,9.342 9.803,9.281 L9.803,6.444 L8.389,6.444 L8.389,9.281 C8.389,9.342 8.351,9.378 8.303,9.378 L7.526,9.378 C7.464,9.378 7.441,9.342 7.441,9.281 L7.441,3.338 C7.441,3.288 7.478,3.253 7.538,3.253 L8.303,3.253 C8.364,3.253 8.389,3.276 8.389,3.338 L8.389,5.674 L9.803,5.674 L9.803,3.338 C9.803,3.301 9.840,3.253 9.901,3.253 L10.665,3.253 C10.715,3.253 10.751,3.288 10.751,3.338 L10.751,9.281 C10.751,9.330 10.726,9.378 10.665,9.378 ZM7.674,23.482 L7.674,26.455 C7.674,26.672 7.542,26.778 7.413,26.778 L6.307,26.778 C6.220,26.778 6.156,26.715 6.156,26.629 L6.156,24.668 L1.514,24.668 L1.514,26.455 C1.514,26.609 1.428,26.778 1.189,26.778 L0.148,26.778 C0.083,26.778 -0.004,26.737 -0.004,26.629 C-0.004,26.069 -0.004,23.482 -0.004,23.482 C-0.004,23.375 0.039,23.310 0.170,23.310 L0.647,23.310 C2.035,20.767 2.187,17.404 2.187,14.798 L2.187,14.022 C2.187,13.936 2.252,13.872 2.359,13.872 L6.697,13.872 C6.784,13.872 6.828,13.915 6.828,14.022 L6.828,22.922 C6.828,23.180 6.914,23.310 7.239,23.310 L7.502,23.310 C7.608,23.310 7.674,23.375 7.674,23.482 ZM5.157,15.229 L3.770,15.229 C3.770,15.595 3.748,16.178 3.705,16.738 C3.553,19.323 3.120,21.435 2.013,23.310 L5.157,23.310 L5.157,15.229 ZM11.916,13.613 C13.651,13.613 14.843,15.402 14.843,18.740 L14.843,19.648 L11.677,19.648 C11.178,19.648 10.333,19.547 10.333,19.547 C10.333,19.547 10.333,19.797 10.333,20.056 C10.333,21.954 11.114,23.397 12.783,23.397 C13.673,23.397 14.302,23.160 14.388,23.160 C14.497,23.160 14.540,23.203 14.561,23.289 L14.735,24.021 C14.757,24.108 14.735,24.172 14.647,24.215 C14.172,24.516 13.238,24.926 12.176,24.926 C10.007,24.926 8.533,22.987 8.533,19.732 C8.533,16.544 9.575,13.613 11.916,13.613 ZM10.398,18.375 C10.398,18.375 11.178,18.289 11.677,18.289 L13.108,18.289 C13.108,18.289 13.108,17.901 13.087,17.555 C12.979,15.896 12.544,14.949 11.850,14.949 C11.092,14.949 10.636,15.876 10.441,17.706 C10.398,18.052 10.398,18.375 10.398,18.375 Z"/>
<path fill-rule="evenodd"  fill="rgb(245, 123, 32)"
 d="M61.907,13.841 L61.033,13.841 L61.033,19.241 C61.033,20.210 60.614,20.770 59.376,21.052 L51.451,23.272 C51.451,23.272 50.775,23.452 50.775,22.846 C50.775,22.341 51.378,22.279 51.473,22.189 L51.435,22.203 L58.667,19.357 C59.258,19.028 59.744,18.273 59.744,17.676 L59.744,9.160 C59.744,7.815 58.421,8.275 58.132,8.446 C57.817,8.632 49.756,13.105 49.756,13.105 C49.164,13.434 48.680,14.191 48.680,14.788 L48.680,23.272 C48.680,23.867 49.538,24.661 50.092,24.664 L50.092,24.664 L61.907,24.664 C62.616,24.667 63.197,24.180 63.197,23.583 L63.197,14.925 C63.197,14.329 62.616,13.841 61.907,13.841 ZM56.194,13.192 C56.751,12.825 57.281,12.945 57.377,13.458 C57.473,13.973 57.150,14.627 56.592,14.995 C56.035,15.361 55.505,15.242 55.409,14.729 C55.314,14.214 55.635,13.560 56.194,13.192 Z"/>
<path fill-rule="evenodd"  fill="rgb(237, 28, 36)"
 d="M6.039,0.211 L4.635,0.211 C3.258,0.211 2.089,1.252 2.089,3.270 C2.089,4.480 2.655,5.372 3.664,5.813 L1.781,9.188 C1.719,9.298 1.781,9.383 1.878,9.383 L2.753,9.383 C2.826,9.383 2.876,9.359 2.900,9.298 L4.612,5.985 L5.227,5.985 L5.227,9.298 C5.227,9.335 5.264,9.383 5.313,9.383 L6.076,9.383 C6.150,9.383 6.175,9.346 6.175,9.286 L6.175,0.334 C6.175,0.249 6.125,0.211 6.039,0.211 ZM5.227,5.202 L4.710,5.202 C3.897,5.202 3.111,4.614 3.111,3.148 C3.111,1.619 3.848,0.995 4.599,0.995 L5.227,0.995 L5.227,5.202 Z"/>
</svg>
