<svg 
 xmlns="http://www.w3.org/2000/svg"
 xmlns:xlink="http://www.w3.org/1999/xlink"
 width="60px" height="40px">
<path fill-rule="evenodd"  fill="rgb(30, 94, 172)"
 d="M34.597,29.390 C34.534,29.613 34.373,29.985 34.184,30.195 C33.960,30.444 33.658,30.556 33.321,30.556 C33.083,30.556 32.858,30.505 32.632,30.382 C32.495,30.296 32.356,30.207 32.269,30.109 L32.644,29.638 C32.708,29.699 32.795,29.761 32.870,29.811 C32.996,29.886 33.146,29.923 33.283,29.923 C33.521,29.923 33.671,29.798 33.746,29.699 C33.833,29.588 33.921,29.327 33.984,29.166 L34.084,28.820 L32.245,24.279 L33.108,24.279 L34.209,26.995 C34.322,27.256 34.434,27.653 34.460,27.764 L34.497,27.764 C34.635,27.244 34.698,27.070 34.810,26.747 L35.598,24.279 L36.312,24.279 L34.597,29.390 ZM29.590,27.715 C29.791,27.938 30.167,28.074 30.578,28.074 C30.830,28.074 31.017,28.037 31.256,27.963 C31.456,27.901 31.618,27.839 31.768,27.764 L32.019,28.273 C31.881,28.348 31.669,28.446 31.481,28.520 C31.130,28.657 30.779,28.695 30.454,28.695 C29.728,28.695 29.215,28.409 28.927,28.074 C28.476,27.578 28.401,26.859 28.401,26.375 C28.401,25.941 28.452,25.271 28.902,24.763 C29.176,24.452 29.628,24.191 30.241,24.191 C30.792,24.191 31.230,24.402 31.518,24.712 C31.956,25.172 31.981,25.743 31.981,26.437 L31.981,26.635 L29.278,26.635 L29.278,26.747 C29.278,27.268 29.440,27.566 29.590,27.715 ZM31.130,26.064 L31.130,25.880 C31.130,25.580 31.130,25.246 30.842,24.974 C30.679,24.811 30.454,24.763 30.229,24.763 C29.891,24.763 29.691,24.911 29.566,25.047 C29.440,25.184 29.278,25.470 29.278,25.966 L29.278,26.064 L31.130,26.064 ZM26.077,10.154 L27.250,9.106 L28.307,10.269 L27.133,11.316 L26.077,10.154 ZM24.577,6.699 L25.750,5.652 L26.807,6.814 L25.634,7.861 L24.577,6.699 ZM23.079,3.245 L24.251,2.198 L25.309,3.362 L24.135,4.407 L23.079,3.245 ZM21.031,0.715 L18.728,2.751 L17.360,1.271 L13.071,5.105 L15.821,8.108 L14.739,9.050 L17.447,12.059 L16.374,12.998 L20.245,17.268 L22.543,15.173 L24.530,17.420 C24.135,17.723 23.704,18.010 23.229,18.275 C21.793,19.087 20.133,19.551 18.366,19.551 C12.932,19.551 8.500,15.160 8.500,9.774 C8.500,4.388 12.932,-0.004 18.366,-0.004 C19.916,-0.004 21.382,0.353 22.689,0.989 C22.893,1.084 23.098,1.191 23.304,1.308 L22.396,2.114 L21.031,0.715 ZM9.314,26.437 L9.314,26.635 L6.635,26.635 L6.635,26.747 C6.635,27.268 6.797,27.566 6.934,27.715 C7.136,27.938 7.511,28.074 7.924,28.074 C8.174,28.074 8.362,28.037 8.600,27.963 C8.800,27.901 8.963,27.827 9.100,27.764 L9.351,28.260 C9.213,28.335 9.013,28.446 8.825,28.509 C8.462,28.645 8.123,28.695 7.799,28.695 C7.073,28.695 6.572,28.397 6.273,28.074 C5.820,27.578 5.759,26.859 5.759,26.375 C5.759,25.953 5.795,25.284 6.259,24.763 C6.535,24.465 6.984,24.204 7.574,24.204 C8.137,24.204 8.574,24.415 8.862,24.712 C9.288,25.172 9.314,25.743 9.314,26.437 ZM8.475,25.891 C8.475,25.580 8.475,25.246 8.187,24.986 C8.024,24.824 7.799,24.763 7.574,24.763 C7.235,24.763 7.036,24.924 6.923,25.047 C6.785,25.197 6.635,25.470 6.635,25.966 L6.635,26.064 L8.475,26.064 L8.475,25.891 ZM3.656,28.707 C3.268,28.707 2.979,28.596 2.691,28.360 L2.655,28.323 L2.629,28.360 C2.353,28.583 2.041,28.707 1.653,28.707 C1.265,28.707 0.902,28.570 0.652,28.323 C0.376,28.050 0.227,27.653 0.227,27.181 C0.227,27.181 0.227,22.914 0.227,22.827 C0.313,22.827 1.014,22.827 1.102,22.827 C1.102,22.914 1.102,27.181 1.102,27.181 C1.102,27.417 1.165,27.603 1.290,27.715 C1.403,27.827 1.553,27.839 1.653,27.839 C1.792,27.839 2.216,27.801 2.216,27.181 C2.216,27.181 2.216,22.914 2.216,22.827 C2.304,22.827 3.005,22.827 3.093,22.827 C3.093,22.914 3.093,27.181 3.093,27.181 C3.093,27.417 3.155,27.603 3.280,27.715 C3.393,27.827 3.543,27.839 3.656,27.839 C3.781,27.839 4.207,27.801 4.207,27.181 C4.207,27.181 4.207,22.914 4.207,22.827 C4.294,22.827 4.996,22.827 5.082,22.827 C5.082,22.914 5.082,27.181 5.082,27.181 C5.082,28.099 4.519,28.707 3.656,28.707 ZM10.840,24.415 C10.978,24.365 11.141,24.303 11.266,24.266 C11.416,24.241 11.629,24.204 11.829,24.204 C12.279,24.204 12.718,24.365 13.031,24.638 C13.632,25.147 13.669,25.953 13.669,26.425 C13.669,26.921 13.594,27.528 13.230,28.012 C12.781,28.596 12.154,28.695 11.692,28.695 C11.066,28.695 10.515,28.509 10.051,28.236 L10.051,22.716 L10.840,22.716 L10.840,24.415 ZM10.840,27.864 C10.953,27.926 11.092,28.000 11.203,28.037 C11.353,28.074 11.553,28.125 11.716,28.125 C12.167,28.125 12.430,27.926 12.555,27.764 C12.668,27.603 12.793,27.306 12.793,26.573 L12.793,26.201 C12.793,25.816 12.793,25.370 12.518,25.073 C12.317,24.862 11.992,24.763 11.679,24.763 L10.840,25.023 L10.840,27.864 ZM15.785,22.741 C16.160,22.741 16.460,22.839 16.735,23.087 L16.773,23.112 L16.810,23.087 C17.074,22.852 17.387,22.741 17.775,22.741 C18.175,22.741 18.526,22.876 18.776,23.112 C19.051,23.386 19.202,23.783 19.202,24.266 C19.202,24.266 19.202,28.520 19.202,28.620 C19.114,28.620 18.425,28.620 18.337,28.620 C18.337,28.520 18.337,24.266 18.337,24.266 C18.337,24.018 18.274,23.844 18.150,23.721 C18.025,23.621 17.874,23.596 17.775,23.596 C17.637,23.596 17.212,23.645 17.212,24.266 C17.212,24.266 17.212,28.520 17.212,28.620 C17.124,28.620 16.435,28.620 16.348,28.620 C16.348,28.520 16.348,24.266 16.348,24.266 C16.348,24.018 16.285,23.844 16.160,23.721 C16.034,23.621 15.886,23.596 15.785,23.596 C15.647,23.596 15.220,23.645 15.220,24.266 C15.220,24.266 15.220,28.520 15.220,28.620 C15.134,28.620 14.446,28.620 14.357,28.620 C14.357,28.520 14.357,24.266 14.357,24.266 C14.357,23.335 14.921,22.741 15.785,22.741 ZM21.691,24.191 C22.343,24.191 22.819,24.452 23.107,24.750 C23.557,25.234 23.645,25.916 23.645,26.449 C23.645,26.971 23.557,27.653 23.107,28.136 C22.819,28.435 22.343,28.695 21.691,28.695 C21.067,28.695 20.591,28.435 20.302,28.136 C19.853,27.653 19.764,26.971 19.764,26.449 C19.764,25.916 19.853,25.234 20.302,24.750 C20.591,24.452 21.067,24.191 21.691,24.191 ZM20.640,26.635 C20.640,27.045 20.640,27.504 20.954,27.839 C21.079,27.963 21.317,28.125 21.691,28.125 C22.094,28.125 22.331,27.963 22.456,27.839 C22.770,27.504 22.770,27.045 22.770,26.635 L22.770,26.252 C22.770,25.841 22.770,25.382 22.456,25.060 C22.331,24.924 22.094,24.763 21.691,24.763 C21.317,24.763 21.079,24.924 20.954,25.060 C20.640,25.382 20.640,25.841 20.640,26.252 L20.640,26.635 ZM25.453,16.516 L23.868,14.772 L25.628,13.202 L27.212,14.946 L25.453,16.516 ZM23.905,12.994 L22.320,11.250 L24.080,9.680 L25.664,11.424 L23.905,12.994 ZM24.160,7.739 L22.401,9.310 L20.817,7.565 L22.575,5.995 L24.160,7.739 ZM22.538,4.233 L20.779,5.803 L19.194,4.059 L20.954,2.489 L22.538,4.233 ZM17.236,3.092 L19.348,5.416 L17.002,7.510 L14.889,5.186 L17.236,3.092 ZM22.695,13.405 L20.349,15.499 L18.236,13.173 L20.583,11.080 L22.695,13.405 ZM18.915,7.062 L21.026,9.387 L18.681,11.481 L16.568,9.156 L18.915,7.062 ZM25.085,24.664 C25.297,24.514 25.485,24.402 25.698,24.328 C25.961,24.216 26.148,24.191 26.411,24.191 C26.787,24.191 27.175,24.266 27.488,24.614 C27.788,24.961 27.851,25.370 27.851,25.718 L27.851,28.608 L27.050,28.608 L27.050,25.656 C27.050,24.949 26.599,24.763 26.223,24.763 C25.848,24.763 25.460,24.924 25.148,25.209 L25.148,28.608 L24.357,28.608 L24.357,24.898 L24.357,24.266 L25.085,24.279 L25.085,24.664 Z"/>
</svg>
