<svg 
 xmlns="http://www.w3.org/2000/svg"
 xmlns:xlink="http://www.w3.org/1999/xlink"
 width="50px" height="31px">
<defs>
<filter filterUnits="userSpaceOnUse" id="Filter_0" x="0px" y="7px" width="60px" height="40px"  >
    <feOffset in="SourceAlpha" dx="0" dy="2" />
    <feGaussianBlur result="blurOut" stdDeviation="1.414" />
    <feFlood flood-color="rgb(0, 0, 0)" result="floodOut" />
    <feComposite operator="atop" in="floodOut" in2="blurOut" />
    <feComponentTransfer><feFuncA type="linear" slope="0.3"/></feComponentTransfer>
    <feMerge>
    <feMergeNode/>
    <feMergeNode in="SourceGraphic"/>
  </feMerge>
</filter>
<filter id="Filter_1">
    <feOffset in="SourceAlpha" dx="0" dy="2" />
    <feGaussianBlur result="blurOut" stdDeviation="0" />
    <feFlood flood-color="rgb(255, 255, 255)" result="floodOut" />
    <feComposite operator="out" in="floodOut" in2="blurOut" result="compOut" />
    <feComposite operator="in" in="compOut" in2="SourceAlpha" />
    <feComponentTransfer><feFuncA type="linear" slope="0.75"/></feComponentTransfer>
    <feBlend mode="normal" in2="SourceGraphic" />
</filter>
<linearGradient id="PSgrad_0" x1="0%" x2="0%" y1="100%" y2="0%">
  <stop offset="0%" stop-color="rgb(0,0,0)" stop-opacity="1" />
  <stop offset="100%" stop-color="rgb(255,255,255)" stop-opacity="1" />
</linearGradient>

</defs>
<path fill-rule="evenodd"  fill="rgb(0, 157, 220)"
 d="M28.678,25.687 C28.771,25.580 28.856,25.466 28.946,25.357 L25.842,25.357 C25.415,24.838 25.019,24.291 24.661,23.718 L30.133,23.718 C30.171,23.659 30.212,23.603 30.249,23.543 C30.473,23.172 30.678,22.789 30.872,22.399 C30.925,22.291 30.986,22.189 31.037,22.080 L23.768,22.080 C23.519,21.550 23.300,21.003 23.112,20.442 L31.701,20.442 C31.703,20.436 31.706,20.430 31.708,20.424 C31.721,20.386 31.729,20.346 31.741,20.308 C31.880,19.884 31.996,19.450 32.099,19.010 C32.132,18.863 32.160,18.715 32.189,18.568 C32.261,18.213 32.318,17.854 32.365,17.490 C32.384,17.342 32.404,17.195 32.420,17.046 C32.468,16.545 32.501,16.040 32.501,15.527 C32.501,14.962 32.471,14.404 32.411,13.855 C32.390,13.656 32.346,13.464 32.317,13.267 C32.267,12.927 32.223,12.584 32.152,12.250 L22.662,12.250 C22.782,11.692 22.933,11.146 23.112,10.612 L31.701,10.612 C31.681,10.550 31.652,10.492 31.630,10.430 C31.465,9.958 31.283,9.495 31.075,9.046 C31.063,9.021 31.049,8.998 31.037,8.974 L23.768,8.974 C24.033,8.408 24.332,7.861 24.661,7.335 L30.132,7.335 C29.946,7.036 29.760,6.735 29.553,6.449 C29.511,6.393 29.465,6.339 29.423,6.282 C29.273,6.081 29.108,5.891 28.946,5.697 L25.843,5.697 C26.324,5.113 26.847,4.566 27.407,4.059 C24.657,1.571 21.008,0.055 17.004,0.055 C8.446,0.055 1.507,6.981 1.507,15.527 C1.507,24.073 8.446,30.999 17.004,30.999 C21.008,30.999 24.657,29.484 27.407,26.995 C27.754,26.681 28.081,26.347 28.398,26.002 C28.494,25.899 28.585,25.793 28.678,25.687 Z"/>
<path fill-rule="evenodd"  fill="rgb(237, 27, 46)"
 d="M32.974,0.055 C28.970,0.055 25.321,1.571 22.571,4.059 C22.010,4.566 21.487,5.113 21.007,5.697 L24.135,5.697 C24.563,6.216 24.957,6.763 25.317,7.335 L19.825,7.335 C19.495,7.861 19.197,8.408 18.932,8.974 L26.209,8.974 C26.458,9.504 26.678,10.051 26.866,10.612 L18.275,10.612 C18.096,11.146 17.945,11.692 17.825,12.250 L27.316,12.250 C27.544,13.307 27.664,14.402 27.664,15.527 C27.664,17.244 27.384,18.898 26.866,20.442 L18.275,20.442 C18.463,21.003 18.683,21.550 18.932,22.080 L26.209,22.080 C25.943,22.645 25.646,23.192 25.317,23.718 L19.825,23.718 C20.183,24.291 20.579,24.838 21.006,25.357 L24.135,25.357 C23.654,25.939 23.132,26.488 22.571,26.995 C25.321,29.484 28.970,30.999 32.974,30.999 C41.532,30.999 48.471,24.073 48.471,15.527 C48.471,6.981 41.532,0.055 32.974,0.055 L32.974,0.055 Z"/>
<g filter="url(#Filter_0)">
<g filter="url(#Filter_1)">
<path fill-rule="evenodd"  fill-opacity="0.902" fill="rgb(255, 255, 255)"
 d="M45.473,19.536 C45.200,19.536 44.979,19.316 44.979,19.043 C44.979,18.770 45.200,18.550 45.473,18.550 C45.746,18.550 45.968,18.770 45.968,19.043 C45.968,19.316 45.746,19.536 45.473,19.536 ZM45.473,18.668 C45.265,18.668 45.097,18.835 45.097,19.043 C45.097,19.249 45.265,19.418 45.473,19.418 C45.681,19.418 45.848,19.249 45.848,19.043 C45.848,18.835 45.681,18.668 45.473,18.668 ZM45.660,19.259 L45.547,19.259 L45.481,19.088 L45.407,19.088 L45.407,19.259 L45.304,19.259 L45.304,18.826 L45.489,18.826 C45.527,18.826 45.566,18.826 45.600,18.848 C45.635,18.871 45.655,18.914 45.655,18.956 C45.655,19.005 45.626,19.051 45.579,19.068 L45.660,19.259 ZM45.525,18.911 C45.507,18.901 45.479,18.904 45.461,18.904 L45.407,18.904 L45.407,19.014 L45.462,19.014 C45.484,19.014 45.506,19.016 45.524,19.005 C45.541,18.995 45.550,18.974 45.550,18.956 C45.550,18.939 45.539,18.920 45.525,18.911 ZM41.561,19.705 C39.405,19.705 38.534,18.400 38.534,16.801 C38.534,14.567 40.009,13.054 42.285,13.054 C44.262,13.054 45.312,14.299 45.312,15.898 C45.312,16.287 45.311,16.313 45.261,16.680 C44.976,18.776 43.509,19.705 41.561,19.705 ZM42.249,14.591 C41.278,14.591 40.675,15.739 40.675,16.752 C40.675,17.606 41.089,18.180 41.770,18.168 C42.182,18.168 43.063,17.606 43.237,16.625 C43.278,16.396 43.299,16.145 43.299,15.874 C43.299,15.213 43.031,14.591 42.249,14.591 ZM38.425,15.023 C38.333,15.013 38.253,15.007 38.184,15.007 C37.270,15.007 36.978,15.683 36.296,19.536 L34.390,19.536 L35.551,13.234 L37.277,13.234 L37.108,14.189 C37.692,13.444 38.142,13.167 38.767,13.167 C38.837,13.167 38.902,13.171 38.959,13.181 C38.968,13.183 39.022,13.197 39.123,13.219 C39.142,13.224 39.179,13.224 39.339,13.286 L38.649,15.069 L38.425,15.023 ZM34.374,14.766 L33.397,14.766 L32.896,17.396 C32.874,17.511 32.863,17.598 32.863,17.657 C32.863,17.982 33.060,18.124 33.513,18.124 C33.730,18.124 33.898,18.104 34.027,18.064 L33.774,19.459 C33.253,19.601 32.846,19.663 32.406,19.663 C31.431,19.663 30.900,19.175 30.900,18.280 C30.900,18.103 30.918,17.914 30.955,17.714 L31.071,17.097 L31.160,16.599 L32.043,11.788 L33.938,11.788 L33.663,13.234 L34.636,13.234 L34.374,14.766 ZM29.155,14.583 C28.533,14.583 28.212,14.757 28.212,15.097 C28.212,15.392 28.305,15.462 29.113,15.781 C30.079,16.163 30.472,16.670 30.472,17.535 C30.472,18.972 29.533,19.637 27.498,19.637 C27.249,19.637 26.894,19.620 26.436,19.585 C26.213,19.568 26.046,19.549 25.932,19.529 L25.579,19.466 L25.493,19.451 L25.757,17.997 C26.375,18.169 26.910,18.246 27.486,18.246 C28.247,18.246 28.591,18.070 28.591,17.678 C28.591,17.391 28.471,17.298 27.691,16.982 C26.672,16.571 26.223,16.022 26.223,15.226 C26.216,14.063 26.962,13.095 29.119,13.095 C29.559,13.095 30.316,13.151 30.815,13.219 L30.540,14.678 C30.050,14.618 29.534,14.583 29.155,14.583 ZM21.613,16.924 C21.598,17.020 21.594,17.064 21.594,17.121 C21.594,17.852 22.159,18.224 23.266,18.224 C23.946,18.224 24.561,18.101 25.243,17.826 L24.928,19.401 C24.274,19.573 23.642,19.657 22.975,19.656 C20.845,19.654 19.735,18.686 19.735,16.833 C19.735,14.670 21.147,13.077 23.064,13.077 C24.634,13.077 25.634,13.969 25.634,15.367 C25.634,15.832 25.566,16.284 25.400,16.924 L21.613,16.924 ZM23.027,14.518 C22.420,14.518 21.987,14.920 21.811,15.647 L23.913,15.651 C23.923,15.519 23.928,15.412 23.928,15.330 C23.928,14.818 23.595,14.518 23.027,14.518 ZM18.844,18.425 L18.777,18.826 L18.728,19.147 L18.697,19.366 L18.677,19.536 L17.094,19.536 L17.131,18.883 C16.649,19.401 16.006,19.646 15.132,19.646 C14.100,19.646 13.392,18.944 13.392,17.925 C13.392,16.389 14.623,15.495 16.739,15.495 C16.955,15.495 17.231,15.512 17.514,15.544 C17.574,15.336 17.590,15.246 17.590,15.134 C17.590,14.717 17.257,14.560 16.367,14.560 C15.824,14.560 15.209,14.629 14.784,14.736 L14.520,14.803 L14.350,14.844 L14.614,13.428 C15.563,13.184 16.191,13.093 16.894,13.093 C18.532,13.093 19.398,13.733 19.398,14.941 C19.398,15.252 19.369,15.488 19.242,16.189 L18.844,18.425 ZM16.861,16.703 C15.782,16.703 15.234,17.026 15.234,17.662 C15.234,18.054 15.502,18.305 15.919,18.305 C16.695,18.305 17.255,17.661 17.288,16.729 C17.087,16.709 17.000,16.703 16.861,16.703 ZM10.579,19.536 L11.711,13.581 L9.104,19.536 L7.367,19.536 L7.050,13.614 L5.913,19.536 L4.184,19.536 L5.662,11.788 L8.635,11.788 L8.793,16.585 L10.889,11.788 L13.986,11.788 L12.483,19.536 L10.579,19.536 Z"/>
</g></g>
<path fill="url(#PSgrad_0)"
 d="M45.473,19.536 C45.200,19.536 44.979,19.316 44.979,19.043 C44.979,18.770 45.200,18.550 45.473,18.550 C45.746,18.550 45.968,18.770 45.968,19.043 C45.968,19.316 45.746,19.536 45.473,19.536 ZM45.473,18.668 C45.265,18.668 45.097,18.835 45.097,19.043 C45.097,19.249 45.265,19.418 45.473,19.418 C45.681,19.418 45.848,19.249 45.848,19.043 C45.848,18.835 45.681,18.668 45.473,18.668 ZM45.660,19.259 L45.547,19.259 L45.481,19.088 L45.407,19.088 L45.407,19.259 L45.304,19.259 L45.304,18.826 L45.489,18.826 C45.527,18.826 45.566,18.826 45.600,18.848 C45.635,18.871 45.655,18.914 45.655,18.956 C45.655,19.005 45.626,19.051 45.579,19.068 L45.660,19.259 ZM45.525,18.911 C45.507,18.901 45.479,18.904 45.461,18.904 L45.407,18.904 L45.407,19.014 L45.462,19.014 C45.484,19.014 45.506,19.016 45.524,19.005 C45.541,18.995 45.550,18.974 45.550,18.956 C45.550,18.939 45.539,18.920 45.525,18.911 ZM41.561,19.705 C39.405,19.705 38.534,18.400 38.534,16.801 C38.534,14.567 40.009,13.054 42.285,13.054 C44.262,13.054 45.312,14.299 45.312,15.898 C45.312,16.287 45.311,16.313 45.261,16.680 C44.976,18.776 43.509,19.705 41.561,19.705 ZM42.249,14.591 C41.278,14.591 40.675,15.739 40.675,16.752 C40.675,17.606 41.089,18.180 41.770,18.168 C42.182,18.168 43.063,17.606 43.237,16.625 C43.278,16.396 43.299,16.145 43.299,15.874 C43.299,15.213 43.031,14.591 42.249,14.591 ZM38.425,15.023 C38.333,15.013 38.253,15.007 38.184,15.007 C37.270,15.007 36.978,15.683 36.296,19.536 L34.390,19.536 L35.551,13.234 L37.277,13.234 L37.108,14.189 C37.692,13.444 38.142,13.167 38.767,13.167 C38.837,13.167 38.902,13.171 38.959,13.181 C38.968,13.183 39.022,13.197 39.123,13.219 C39.142,13.224 39.179,13.224 39.339,13.286 L38.649,15.069 L38.425,15.023 ZM34.374,14.766 L33.397,14.766 L32.896,17.396 C32.874,17.511 32.863,17.598 32.863,17.657 C32.863,17.982 33.060,18.124 33.513,18.124 C33.730,18.124 33.898,18.104 34.027,18.064 L33.774,19.459 C33.253,19.601 32.846,19.663 32.406,19.663 C31.431,19.663 30.900,19.175 30.900,18.280 C30.900,18.103 30.918,17.914 30.955,17.714 L31.071,17.097 L31.160,16.599 L32.043,11.788 L33.938,11.788 L33.663,13.234 L34.636,13.234 L34.374,14.766 ZM29.155,14.583 C28.533,14.583 28.212,14.757 28.212,15.097 C28.212,15.392 28.305,15.462 29.113,15.781 C30.079,16.163 30.472,16.670 30.472,17.535 C30.472,18.972 29.533,19.637 27.498,19.637 C27.249,19.637 26.894,19.620 26.436,19.585 C26.213,19.568 26.046,19.549 25.932,19.529 L25.579,19.466 L25.493,19.451 L25.757,17.997 C26.375,18.169 26.910,18.246 27.486,18.246 C28.247,18.246 28.591,18.070 28.591,17.678 C28.591,17.391 28.471,17.298 27.691,16.982 C26.672,16.571 26.223,16.022 26.223,15.226 C26.216,14.063 26.962,13.095 29.119,13.095 C29.559,13.095 30.316,13.151 30.815,13.219 L30.540,14.678 C30.050,14.618 29.534,14.583 29.155,14.583 ZM21.613,16.924 C21.598,17.020 21.594,17.064 21.594,17.121 C21.594,17.852 22.159,18.224 23.266,18.224 C23.946,18.224 24.561,18.101 25.243,17.826 L24.928,19.401 C24.274,19.573 23.642,19.657 22.975,19.656 C20.845,19.654 19.735,18.686 19.735,16.833 C19.735,14.670 21.147,13.077 23.064,13.077 C24.634,13.077 25.634,13.969 25.634,15.367 C25.634,15.832 25.566,16.284 25.400,16.924 L21.613,16.924 ZM23.027,14.518 C22.420,14.518 21.987,14.920 21.811,15.647 L23.913,15.651 C23.923,15.519 23.928,15.412 23.928,15.330 C23.928,14.818 23.595,14.518 23.027,14.518 ZM18.844,18.425 L18.777,18.826 L18.728,19.147 L18.697,19.366 L18.677,19.536 L17.094,19.536 L17.131,18.883 C16.649,19.401 16.006,19.646 15.132,19.646 C14.100,19.646 13.392,18.944 13.392,17.925 C13.392,16.389 14.623,15.495 16.739,15.495 C16.955,15.495 17.231,15.512 17.514,15.544 C17.574,15.336 17.590,15.246 17.590,15.134 C17.590,14.717 17.257,14.560 16.367,14.560 C15.824,14.560 15.209,14.629 14.784,14.736 L14.520,14.803 L14.350,14.844 L14.614,13.428 C15.563,13.184 16.191,13.093 16.894,13.093 C18.532,13.093 19.398,13.733 19.398,14.941 C19.398,15.252 19.369,15.488 19.242,16.189 L18.844,18.425 ZM16.861,16.703 C15.782,16.703 15.234,17.026 15.234,17.662 C15.234,18.054 15.502,18.305 15.919,18.305 C16.695,18.305 17.255,17.661 17.288,16.729 C17.087,16.709 17.000,16.703 16.861,16.703 ZM10.579,19.536 L11.711,13.581 L9.104,19.536 L7.367,19.536 L7.050,13.614 L5.913,19.536 L4.184,19.536 L5.662,11.788 L8.635,11.788 L8.793,16.585 L10.889,11.788 L13.986,11.788 L12.483,19.536 L10.579,19.536 Z"/>
</svg>
