<svg 
 xmlns="http://www.w3.org/2000/svg"
 xmlns:xlink="http://www.w3.org/1999/xlink"
 width="65px" height="19px">
<defs>
<filter filterUnits="userSpaceOnUse" id="Filter_0" x="32px" y="0px" width="60px" height="40px"  >
    <feOffset in="SourceAlpha" dx="0" dy="2" />
    <feGaussianBlur result="blurOut" stdDeviation="0" />
    <feFlood flood-color="rgb(255, 255, 255)" result="floodOut" />
    <feComposite operator="atop" in="floodOut" in2="blurOut" />
    <feComponentTransfer><feFuncA type="linear" slope="0.85"/></feComponentTransfer>
    <feMerge>
    <feMergeNode/>
    <feMergeNode in="SourceGraphic"/>
  </feMerge>
</filter>
<filter filterUnits="userSpaceOnUse" id="Filter_1" x="0px" y="0px" width="34px" height="19px"  >
    <feOffset in="SourceAlpha" dx="0" dy="2" />
    <feGaussianBlur result="blurOut" stdDeviation="0" />
    <feFlood flood-color="rgb(255, 255, 255)" result="floodOut" />
    <feComposite operator="atop" in="floodOut" in2="blurOut" />
    <feComponentTransfer><feFuncA type="linear" slope="0.85"/></feComponentTransfer>
    <feMerge>
    <feMergeNode/>
    <feMergeNode in="SourceGraphic"/>
  </feMerge>
</filter>

</defs>
<g filter="url(#Filter_0)">
<path fill-rule="evenodd"  fill="rgb(51, 102, 153)"
 d="M64.708,2.500 L64.708,1.526 C64.708,1.453 64.705,1.382 64.699,1.314 C64.692,1.245 64.678,1.190 64.656,1.150 C64.632,1.106 64.598,1.073 64.553,1.051 C64.509,1.028 64.445,1.017 64.361,1.017 C64.280,1.017 64.199,1.037 64.117,1.077 C64.035,1.117 63.954,1.168 63.873,1.230 C63.876,1.254 63.879,1.281 63.880,1.313 C63.882,1.344 63.883,1.374 63.883,1.405 L63.883,2.500 L63.593,2.500 L63.593,1.526 C63.593,1.451 63.589,1.379 63.582,1.312 C63.574,1.243 63.561,1.190 63.539,1.148 C63.516,1.104 63.482,1.072 63.437,1.049 C63.392,1.027 63.329,1.017 63.245,1.017 C63.165,1.017 63.086,1.036 63.006,1.075 C62.926,1.114 62.846,1.163 62.766,1.223 L62.766,2.500 L62.475,2.500 L62.475,0.790 L62.766,0.790 L62.766,0.980 C62.858,0.906 62.948,0.847 63.039,0.805 C63.129,0.763 63.224,0.742 63.327,0.742 C63.444,0.742 63.544,0.767 63.627,0.816 C63.709,0.865 63.770,0.932 63.810,1.020 C63.928,0.921 64.035,0.851 64.133,0.808 C64.229,0.764 64.333,0.742 64.444,0.742 C64.633,0.742 64.774,0.800 64.864,0.913 C64.954,1.027 65.001,1.186 65.001,1.390 L65.001,2.500 L64.708,2.500 ZM61.773,2.535 C61.595,2.535 61.461,2.487 61.370,2.394 C61.277,2.300 61.233,2.149 61.233,1.942 L61.233,1.032 L61.035,1.032 L61.035,0.790 L61.233,0.790 L61.233,0.299 L61.523,0.299 L61.523,0.790 L62.124,0.790 L62.124,1.032 L61.523,1.032 L61.523,1.812 C61.523,1.901 61.526,1.972 61.529,2.023 C61.534,2.073 61.548,2.120 61.574,2.164 C61.595,2.205 61.626,2.234 61.666,2.253 C61.706,2.273 61.767,2.281 61.849,2.281 C61.896,2.281 61.945,2.275 61.997,2.261 C62.049,2.247 62.086,2.236 62.109,2.226 L62.124,2.226 L62.124,2.485 C62.070,2.500 62.010,2.512 61.945,2.520 C61.881,2.529 61.823,2.535 61.773,2.535 ZM59.653,0.984 L57.271,11.646 C57.267,11.663 57.259,11.678 57.255,11.695 C57.148,12.041 56.780,12.315 56.419,12.315 L54.769,12.315 L54.764,12.308 C54.423,12.277 54.215,11.993 54.291,11.651 L54.287,11.646 C54.296,11.608 54.330,11.464 54.381,11.243 L56.565,1.451 C56.631,1.155 56.669,0.984 56.669,0.984 C56.672,0.969 56.679,0.956 56.683,0.941 C56.786,0.591 57.155,0.314 57.520,0.314 L57.520,0.314 C57.520,0.314 57.522,0.314 57.523,0.314 L59.113,0.314 C59.493,0.314 59.731,0.617 59.651,0.982 L59.653,0.984 ZM53.899,6.105 L52.602,11.646 C52.522,11.983 52.189,12.263 51.840,12.306 C51.834,12.309 51.833,12.315 51.815,12.315 L51.561,12.315 C51.198,12.316 50.420,12.316 50.195,12.316 L50.192,12.315 L50.163,12.315 L50.159,12.309 C49.817,12.275 49.610,11.992 49.684,11.651 L49.682,11.646 C49.682,11.644 49.687,11.641 49.687,11.639 L49.752,11.356 L49.743,11.341 C49.513,11.491 49.333,11.612 49.073,11.783 C48.815,11.954 48.569,12.091 48.342,12.185 C48.037,12.315 47.750,12.408 47.486,12.474 C47.218,12.540 46.845,12.573 46.370,12.577 C45.608,12.577 44.979,12.367 44.496,11.942 C44.018,11.511 43.770,10.957 43.770,10.276 C43.771,9.557 43.942,8.946 44.281,8.441 C44.628,7.939 45.134,7.542 45.809,7.246 C46.441,6.961 47.199,6.755 48.065,6.634 C48.943,6.507 49.671,6.415 50.687,6.355 C50.856,6.333 50.913,6.266 50.943,6.197 C50.976,6.123 50.973,6.038 50.972,5.948 C50.972,5.570 50.794,5.306 50.435,5.150 C50.075,5.002 49.535,4.925 48.823,4.925 C48.338,4.921 47.729,5.018 47.155,5.147 C46.553,5.282 46.393,5.370 46.098,5.457 C45.954,5.501 45.627,5.524 45.751,4.960 L45.969,4.078 C45.969,4.078 46.072,3.408 46.748,3.263 C47.076,3.192 47.131,3.179 47.660,3.099 C48.379,2.988 49.097,2.932 49.812,2.932 C51.255,2.932 52.311,3.120 52.986,3.492 C53.659,3.865 53.999,4.445 53.996,5.229 C54.002,5.333 53.983,5.476 53.967,5.651 C53.952,5.825 53.930,5.975 53.899,6.105 ZM50.356,8.032 C50.254,8.033 49.453,8.124 49.047,8.175 C48.591,8.238 48.197,8.326 47.876,8.434 C47.554,8.561 47.292,8.730 47.118,8.941 C46.944,9.161 46.860,9.440 46.860,9.800 C46.856,10.112 46.977,10.329 47.206,10.455 C47.435,10.586 47.775,10.649 48.216,10.649 C48.504,10.649 48.816,10.580 49.145,10.449 C49.388,10.349 49.621,10.231 49.842,10.094 C49.921,10.044 50.093,9.858 50.124,9.729 C50.230,9.303 50.461,8.363 50.482,8.245 C50.526,7.975 50.458,8.032 50.356,8.032 ZM37.869,8.379 L37.362,8.379 C36.977,8.373 36.592,8.680 36.508,9.046 L35.906,11.657 C35.816,12.022 35.430,12.325 35.052,12.322 L33.268,12.325 C32.891,12.327 32.643,12.022 32.734,11.657 L35.234,0.898 C35.323,0.532 35.697,0.235 36.080,0.228 L39.799,0.226 C40.599,0.228 41.300,0.286 41.890,0.389 C42.486,0.497 43.001,0.684 43.434,0.950 C43.858,1.217 44.192,1.560 44.413,1.986 C44.640,2.407 44.748,2.938 44.752,3.568 C44.752,5.012 44.145,6.172 42.941,7.056 C41.732,7.937 40.045,8.379 37.869,8.379 ZM40.862,2.800 C40.509,2.576 39.999,2.464 39.317,2.460 L38.733,2.464 C38.356,2.460 37.967,2.768 37.888,3.129 L37.355,5.413 C37.264,5.779 37.511,6.085 37.894,6.081 L38.335,6.081 C39.298,6.081 40.045,5.888 40.577,5.505 C41.112,5.113 41.380,4.563 41.379,3.848 C41.375,3.379 41.208,3.027 40.862,2.800 Z"/>
</g>
<g filter="url(#Filter_1)">
<path fill-rule="evenodd"  fill="rgb(28, 54, 99)"
 d="M32.739,4.057 L25.661,15.900 C25.432,16.268 24.929,16.567 24.548,16.567 L22.708,16.570 C22.327,16.570 22.200,16.268 22.430,15.900 L24.005,13.186 C24.005,13.186 24.135,13.029 24.017,12.144 C23.780,10.544 22.567,3.739 22.567,3.739 C22.481,3.372 22.720,3.069 23.102,3.069 L24.691,3.067 C25.181,3.066 25.573,3.384 25.661,3.756 C25.661,3.756 26.431,8.370 26.450,8.475 C26.472,8.562 26.610,8.708 26.747,8.477 C26.996,8.045 29.544,3.727 29.544,3.727 C29.779,3.359 30.279,3.054 30.659,3.054 C30.659,3.054 32.367,3.060 32.792,3.054 C33.417,3.045 32.739,4.057 32.739,4.057 ZM21.628,6.097 L20.330,11.637 C20.250,11.974 19.917,12.254 19.569,12.297 C19.562,12.301 19.562,12.307 19.544,12.307 L19.291,12.307 C18.927,12.307 18.150,12.308 17.922,12.308 L17.922,12.307 L17.891,12.307 L17.888,12.299 C17.545,12.267 17.340,11.984 17.413,11.642 L17.411,11.637 C17.411,11.634 17.415,11.632 17.415,11.630 L17.480,11.347 L17.473,11.334 C17.241,11.482 17.060,11.604 16.802,11.776 C16.542,11.946 16.298,12.082 16.069,12.176 C15.766,12.307 15.478,12.399 15.214,12.465 C14.946,12.531 14.575,12.566 14.098,12.569 C13.337,12.569 12.708,12.358 12.224,11.933 C11.747,11.502 11.500,10.948 11.500,10.268 C11.500,9.548 11.670,8.937 12.010,8.433 C12.358,7.931 12.862,7.534 13.537,7.238 C14.171,6.952 14.928,6.745 15.794,6.625 C16.673,6.499 17.401,6.407 18.415,6.347 C18.585,6.324 18.642,6.258 18.671,6.188 C18.703,6.114 18.701,6.030 18.700,5.940 C18.700,5.562 18.523,5.297 18.162,5.142 C17.803,4.993 17.262,4.917 16.551,4.917 C16.067,4.913 15.458,5.009 14.884,5.138 C14.282,5.273 14.121,5.361 13.826,5.449 C13.683,5.493 13.357,5.516 13.480,4.952 L13.697,4.069 C13.697,4.069 13.801,3.400 14.477,3.255 C14.806,3.183 14.858,3.170 15.388,3.090 C16.109,2.979 16.827,2.923 17.541,2.923 C18.984,2.923 20.040,3.111 20.714,3.483 C21.387,3.856 21.729,4.436 21.725,5.220 C21.730,5.324 21.712,5.468 21.695,5.644 C21.681,5.816 21.657,5.967 21.628,6.097 ZM18.084,8.023 C17.982,8.026 17.180,8.116 16.776,8.166 C16.321,8.230 15.926,8.317 15.604,8.426 C15.281,8.552 15.022,8.722 14.846,8.933 C14.673,9.152 14.588,9.432 14.588,9.791 C14.584,10.103 14.705,10.321 14.935,10.446 C15.164,10.578 15.505,10.640 15.945,10.640 C16.232,10.640 16.544,10.571 16.873,10.440 C17.117,10.340 17.350,10.223 17.570,10.085 C17.647,10.035 17.819,9.849 17.852,9.721 C17.958,9.294 18.189,8.354 18.208,8.237 C18.255,7.967 18.186,8.023 18.084,8.023 ZM5.605,8.336 L5.097,8.336 C4.713,8.336 4.333,8.638 4.251,9.003 L3.638,11.613 C3.552,11.989 3.171,12.286 2.787,12.286 L1.010,12.286 C0.626,12.286 0.385,11.981 0.471,11.613 L2.972,0.858 C3.062,0.491 3.439,0.192 3.824,0.187 L7.535,0.185 C8.336,0.192 9.035,0.245 9.633,0.351 C10.227,0.461 10.736,0.646 11.174,0.913 C11.596,1.174 11.928,1.521 12.149,1.947 C12.380,2.370 12.489,2.899 12.487,3.532 C12.489,4.971 11.886,6.136 10.675,7.015 C9.465,7.895 7.779,8.334 5.605,8.336 ZM8.601,2.764 C8.253,2.535 7.736,2.419 7.057,2.419 L6.474,2.423 C6.091,2.419 5.708,2.724 5.626,3.091 L5.092,5.371 C5.008,5.742 5.250,6.043 5.633,6.043 L6.069,6.043 C7.032,6.043 7.776,5.848 8.312,5.461 C8.850,5.072 9.123,4.522 9.112,3.810 C9.119,3.337 8.944,2.986 8.601,2.764 Z"/>
</g>
</svg>
