<svg version="1.1" baseProfile="full" xmlns="http://www.w3.org/2000/svg" xmlns:xlink="http://www.w3.org/1999/xlink" xmlns:ev="http://www.w3.org/2001/xml-events" xml:space="preserve" x="0px" y="0px" width="75px" height="55px"  viewBox="0 0 75 55" preserveAspectRatio="none" shape-rendering="geometricPrecision">"<path opacity="0.2" d="M33.7891 17.3672C33.7891 20.2318 33.4961 23.3242 32.9102 26.6445C32.3893 29.8997 31.5104 33.1549 30.2734 36.4102C29.1016 39.6003 27.5391 42.6602 25.5859 45.5898C23.6328 48.5195 21.2891 50.9935 18.5547 53.0117L8.00781 45.5898C9.76562 43.5065 11.1003 41.5208 12.0117 39.6328C12.9232 37.7448 13.6393 35.8568 14.1602 33.9688C12.207 33.6432 10.3841 32.9922 8.69141 32.0156C6.9987 31.0391 5.53385 29.8346 4.29688 28.4023C3.125 26.9049 2.18099 25.2122 1.46484 23.3242C0.748698 21.4362 0.390625 19.4505 0.390625 17.3672C0.390625 15.1536 0.813802 13.0378 1.66016 11.0195C2.57161 9.0013 3.77604 7.24349 5.27344 5.74609C6.83594 4.18359 8.59375 2.97917 10.5469 2.13281C12.5651 1.22135 14.7135 0.765625 16.9922 0.765625C19.3359 0.765625 21.5169 1.22135 23.5352 2.13281C25.6185 2.97917 27.4089 4.18359 28.9062 5.74609C30.4036 7.24349 31.5755 9.0013 32.4219 11.0195C33.3333 13.0378 33.7891 15.1536 33.7891 17.3672ZM73.7305 17.3672C73.7305 20.2318 73.4375 23.3242 72.8516 26.6445C72.3307 29.8997 71.4518 33.1549 70.2148 36.4102C69.043 39.6003 67.4805 42.6602 65.5273 45.5898C63.6393 48.5195 61.3281 50.9935 58.5938 53.0117L47.9492 45.5898C49.7721 43.5065 51.1393 41.5208 52.0508 39.6328C52.9622 37.7448 53.6784 35.8568 54.1992 33.9688C52.2461 33.6432 50.4232 32.9922 48.7305 32.0156C47.0378 31.0391 45.5729 29.8346 44.3359 28.4023C43.099 26.9049 42.1224 25.2122 41.4062 23.3242C40.6901 21.4362 40.332 19.4505 40.332 17.3672C40.332 15.1536 40.7552 13.0378 41.6016 11.0195C42.513 9.0013 43.7174 7.24349 45.2148 5.74609C46.7773 4.18359 48.5352 2.97917 50.4883 2.13281C52.5065 1.22135 54.6549 0.765625 56.9336 0.765625C59.2773 0.765625 61.4583 1.22135 63.4766 2.13281C65.5599 2.97917 67.3503 4.18359 68.8477 5.74609C70.4102 7.24349 71.6146 9.0013 72.4609 11.0195C73.3073 13.0378 73.7305 15.1536 73.7305 17.3672Z" fill="#f09bbf"/></svg>