<svg version="1.1" baseProfile="full" xmlns="http://www.w3.org/2000/svg" xmlns:xlink="http://www.w3.org/1999/xlink" xmlns:ev="http://www.w3.org/2001/xml-events" xml:space="preserve" x="0px" y="0px" width="20px" height="20px"  viewBox="0 0 20 20" preserveAspectRatio="none" shape-rendering="geometricPrecision"><path fill-rule="evenodd"  d="M16.458,19.487 C12.302,19.487 8.156,17.801 5.192,14.865 C1.973,11.675 0.243,7.104 0.566,2.637 C0.595,2.222 0.884,1.870 1.288,1.755 L5.335,0.610 C5.799,0.477 6.289,0.693 6.504,1.119 L8.816,5.702 C9.008,6.083 8.933,6.543 8.629,6.845 L7.373,8.089 C7.898,9.222 8.574,10.259 9.207,10.887 C9.841,11.514 10.888,12.184 12.031,12.704 L13.286,11.460 C13.591,11.159 14.056,11.085 14.440,11.274 L19.066,13.566 C19.496,13.779 19.712,14.265 19.580,14.723 L18.423,18.734 C18.308,19.133 17.952,19.419 17.533,19.449 C17.175,19.474 16.817,19.487 16.458,19.487 ZM2.528,3.464 C2.459,7.144 3.955,10.838 6.606,13.465 C9.257,16.091 13.003,17.576 16.699,17.504 L17.430,14.969 L14.191,13.365 L12.966,14.579 C12.683,14.859 12.259,14.945 11.888,14.798 C10.260,14.153 8.730,13.214 7.794,12.287 C7.794,12.287 7.794,12.287 7.794,12.287 C6.858,11.360 5.911,9.844 5.260,8.232 C5.111,7.863 5.198,7.443 5.481,7.163 L6.706,5.949 L5.087,2.739 L2.528,3.464 Z"/></svg>