<svg version="1.1" baseProfile="full" xmlns="http://www.w3.org/2000/svg" xmlns:xlink="http://www.w3.org/1999/xlink" xmlns:ev="http://www.w3.org/2001/xml-events" xml:space="preserve" x="0px" y="0px" width="21px" height="21px"  viewBox="0 0 21 21" preserveAspectRatio="none" shape-rendering="geometricPrecision">"<path d="M14.9062 20.5628C14.1128 20.5628 13.2778 20.3537 12.5262 19.9354C7.34875 16.966 3.3404 12.9929 0.584656 8.05779C-0.500939 6.0503 -0.0416486 3.54094 1.712 2.07715L2.92286 1.03158C3.38215 0.655179 3.9667 0.487888 4.55125 0.529711C5.1358 0.613356 5.6786 0.947938 6.01263 1.40799L8.4761 5.00474C8.68486 5.2975 8.68486 5.6739 8.4761 5.96666L7.22349 7.80686C8.64311 10.1071 10.522 11.9891 12.8185 13.4111L14.6974 12.491C14.9479 12.3655 15.2402 12.3655 15.4907 12.5328L18.9563 14.5821C19.4991 14.9167 19.8331 15.4186 19.9584 16.0459C20.0836 16.6733 19.8748 17.2588 19.4991 17.7607L18.5805 18.848C17.6201 19.9773 16.284 20.5628 14.9062 20.5628ZM4.25898 2.20262C4.17547 2.20262 4.09196 2.20262 3.9667 2.28626L2.75585 3.33183C1.6285 4.29375 1.33622 5.92484 2.04603 7.22134C4.63476 11.9055 8.43434 15.6695 13.3613 18.4716C14.6556 19.2244 16.3258 18.9317 17.2861 17.8025L18.2047 16.7151C18.33 16.5896 18.33 16.4223 18.2882 16.3805C18.2882 16.2969 18.2465 16.1714 18.0794 16.0877L15.0314 14.2057L13.1525 15.1258C12.902 15.2513 12.6097 15.2513 12.3592 15.084C9.47818 13.4111 7.18173 11.1108 5.51159 8.22508C5.34457 7.93232 5.34457 7.59774 5.55334 7.34681L6.80595 5.54843L4.63476 2.41173C4.55125 2.24444 4.38424 2.20262 4.34248 2.20262C4.30073 2.20262 4.30073 2.20262 4.25898 2.20262Z" fill="#f7e4d7"/></svg>