<svg version="1.1" baseProfile="full" xmlns="http://www.w3.org/2000/svg" xmlns:xlink="http://www.w3.org/1999/xlink" xmlns:ev="http://www.w3.org/2001/xml-events" xml:space="preserve" x="0px" y="0px" width="13px" height="14px"  viewBox="0 0 13 14" preserveAspectRatio="none" shape-rendering="geometricPrecision"><path fill="#262626" d="M12.000,14.000 L11.000,14.000 C11.000,14.000 11.153,8.001 6.002,8.000 C6.001,8.000 6.001,8.000 6.000,8.000 C5.999,8.000 5.999,8.000 5.998,8.000 C0.472,8.001 1.000,14.000 1.000,14.000 L0.000,14.000 C0.000,14.000 -0.184,8.758 3.826,7.351 C2.729,6.638 2.000,5.406 2.000,4.000 C2.000,1.791 3.791,-0.000 6.000,-0.000 C8.209,-0.000 10.000,1.791 10.000,4.000 C10.000,5.419 9.256,6.658 8.142,7.368 C12.003,8.798 12.000,14.000 12.000,14.000 ZM9.000,4.000 C9.000,2.422 7.578,1.000 6.000,1.000 C4.422,1.000 3.000,2.422 3.000,4.000 C3.000,5.578 4.422,7.000 6.000,7.000 C7.578,7.000 9.000,5.578 9.000,4.000 Z"/></svg>