<svg width="44" height="44" viewBox="0 0 32 32" fill="none" xmlns="http://www.w3.org/2000/svg" >

<path fill-rule="evenodd" clip-rule="evenodd" d="M26.2057 11.0244C26.3539 10.53 26.2057 10.1667 25.5 10.1667H23.1667C22.5734 10.1667 22.2999 10.4805 22.1516 10.8266C22.1516 10.8266 20.965 13.7188 19.284 15.5975C18.7402 16.1414 18.493 16.3144 18.1963 16.3144C18.048 16.3144 17.8333 16.1414 17.8333 15.647V11.0244C17.8333 10.4311 17.6612 10.1667 17.1667 10.1667H13.5C13.1293 10.1667 12.9063 10.442 12.9063 10.703C12.9063 11.2654 13.7467 11.3951 13.8334 12.9772V16.4133C13.8334 17.1667 13.6973 17.3033 13.4007 17.3033C12.6097 17.3033 10.6855 14.3981 9.54434 11.0738C9.32069 10.4277 9.09638 10.1667 8.50004 10.1667H6.16671C5.50004 10.1667 5.3667 10.4805 5.3667 10.8266C5.3667 11.4446 6.15775 14.5099 9.04997 18.5639C10.9781 21.3325 13.6947 22.8333 16.1667 22.8333C17.6499 22.8333 17.8334 22.5 17.8334 21.9258V19.8333C17.8334 19.1667 17.9739 19.0336 18.4436 19.0336C18.7896 19.0336 19.3829 19.2067 20.7673 20.5415C22.3493 22.1236 22.6102 22.8333 23.5 22.8333H25.8334C26.5 22.8333 26.8334 22.5 26.6411 21.8422C26.4307 21.1866 25.6753 20.2354 24.673 19.1078C24.1292 18.4651 23.3134 17.7729 23.0662 17.4268C22.7201 16.9819 22.819 16.7841 23.0662 16.3886C23.0662 16.3886 25.909 12.3839 26.2057 11.0244V11.0244Z" fill="white" />

</svg>
