<svg width="220" height="56" viewBox="0 0 220 56" fill="none" xmlns="http://www.w3.org/2000/svg">
<circle cx="37" cy="28" r="12" fill="#FC3F1D"/>
<path d="M38.7738 35.212H41.2808V20.812H37.6342C33.9669 20.812 32.0399 22.6975 32.0399 25.4739C32.0399 27.6909 33.0966 28.9962 34.9821 30.3429L31.7084 35.212H34.4227L38.0693 29.7628L36.8054 28.9133C35.2722 27.8773 34.5263 27.0693 34.5263 25.3288C34.5263 23.7956 35.6037 22.7596 37.6549 22.7596H38.7738V35.212Z" fill="white"/>
<path d="M61.0826 21.144H64.9866C66.3519 21.144 67.3919 21.3573 68.1066 21.784C68.8213 22.2107 69.1786 22.9307 69.1786 23.944C69.1786 24.36 69.1199 24.7227 69.0026 25.032C68.8853 25.3307 68.7146 25.592 68.4906 25.816C68.2773 26.0293 68.0159 26.2053 67.7066 26.344C67.3973 26.4827 67.0559 26.5893 66.6826 26.664C67.6426 26.7813 68.3679 27.0427 68.8586 27.448C69.3493 27.8533 69.5946 28.472 69.5946 29.304C69.5946 29.9013 69.4773 30.4133 69.2426 30.84C69.0079 31.256 68.6826 31.5973 68.2666 31.864C67.8506 32.12 67.3599 32.312 66.7946 32.44C66.2293 32.5573 65.6159 32.616 64.9546 32.616H61.0826V21.144ZM63.0186 22.824V25.88H65.0826C65.7226 25.88 66.2399 25.7467 66.6346 25.48C67.0293 25.2027 67.2266 24.7707 67.2266 24.184C67.2266 23.6507 67.0453 23.2933 66.6826 23.112C66.3306 22.92 65.8293 22.824 65.1786 22.824H63.0186ZM63.0186 27.544V30.952H65.1466C65.5093 30.952 65.8399 30.9253 66.1386 30.872C66.4373 30.808 66.6933 30.712 66.9066 30.584C67.1199 30.4453 67.2853 30.2693 67.4026 30.056C67.5199 29.832 67.5786 29.56 67.5786 29.24C67.5786 28.6107 67.3706 28.1733 66.9546 27.928C66.5493 27.672 65.8933 27.544 64.9866 27.544H63.0186Z" fill="white"/>
<path d="M74.9594 32.776C74.3727 32.776 73.8287 32.68 73.3274 32.488C72.826 32.296 72.3887 32.0187 72.0154 31.656C71.6527 31.2827 71.3647 30.8293 71.1514 30.296C70.9487 29.7627 70.8474 29.1493 70.8474 28.456C70.8474 27.7627 70.9487 27.1493 71.1514 26.616C71.3647 26.0827 71.6527 25.6347 72.0154 25.272C72.3887 24.8987 72.826 24.6213 73.3274 24.44C73.8287 24.248 74.3727 24.152 74.9594 24.152C75.546 24.152 76.09 24.248 76.5914 24.44C77.0927 24.6213 77.53 24.8987 77.9034 25.272C78.2767 25.6347 78.57 26.0827 78.7834 26.616C78.9967 27.1493 79.1034 27.7627 79.1034 28.456C79.1034 29.1493 78.9967 29.7627 78.7834 30.296C78.57 30.8293 78.2767 31.2827 77.9034 31.656C77.53 32.0187 77.0927 32.296 76.5914 32.488C76.09 32.68 75.546 32.776 74.9594 32.776ZM74.9594 31.224C75.5994 31.224 76.1274 31 76.5434 30.552C76.97 30.104 77.1834 29.4053 77.1834 28.456C77.1834 27.5173 76.97 26.824 76.5434 26.376C76.1274 25.9173 75.5994 25.688 74.9594 25.688C74.33 25.688 73.802 25.9173 73.3754 26.376C72.9594 26.824 72.7514 27.5173 72.7514 28.456C72.7514 29.4053 72.9594 30.104 73.3754 30.552C73.802 31 74.33 31.224 74.9594 31.224Z" fill="white"/>
<path d="M84.4002 23.32C83.9522 23.32 83.5629 23.2613 83.2322 23.144C82.9122 23.0267 82.6402 22.8667 82.4162 22.664C82.2029 22.4507 82.0429 22.2053 81.9362 21.928C81.8296 21.64 81.7762 21.336 81.7762 21.016H83.4082C83.4082 21.3893 83.4936 21.6613 83.6642 21.832C83.8456 21.992 84.0909 22.072 84.4002 22.072C84.7096 22.072 84.9496 21.992 85.1202 21.832C85.2909 21.6613 85.3762 21.3893 85.3762 21.016H87.0242C87.0242 21.336 86.9709 21.64 86.8642 21.928C86.7576 22.2053 86.5922 22.4507 86.3682 22.664C86.1549 22.8667 85.8829 23.0267 85.5522 23.144C85.2216 23.2613 84.8376 23.32 84.4002 23.32ZM82.4962 30.104L86.3362 24.312H88.1602V32.616H86.3202V26.856L82.5122 32.616H80.6562V24.312H82.4962V30.104Z" fill="white"/>
<path d="M93.962 25.816V32.616H92.106V25.816H89.594V24.312H96.522V25.816H93.962Z" fill="white"/>
<path d="M99.7775 30.104L103.617 24.312H105.441V32.616H103.601V26.856L99.7935 32.616H97.9375V24.312H99.7775V30.104Z" fill="white"/>
<path d="M114.871 32.776C114.199 32.776 113.596 32.68 113.063 32.488C112.53 32.2853 112.076 32.0027 111.703 31.64C111.33 31.2667 111.042 30.8133 110.839 30.28C110.636 29.7467 110.535 29.1387 110.535 28.456C110.535 27.784 110.636 27.1813 110.839 26.648C111.042 26.1147 111.33 25.6667 111.703 25.304C112.076 24.9307 112.535 24.648 113.079 24.456C113.623 24.2533 114.231 24.152 114.903 24.152C115.479 24.152 115.98 24.216 116.407 24.344C116.844 24.472 117.191 24.632 117.447 24.824V26.36C117.116 26.1467 116.754 25.9813 116.359 25.864C115.975 25.7467 115.527 25.688 115.015 25.688C113.298 25.688 112.439 26.6107 112.439 28.456C112.439 30.3013 113.282 31.224 114.967 31.224C115.511 31.224 115.975 31.1653 116.359 31.048C116.754 30.92 117.116 30.76 117.447 30.568V32.104C117.17 32.2853 116.823 32.4453 116.407 32.584C115.991 32.712 115.479 32.776 114.871 32.776Z" fill="white"/>
<path d="M122.784 24.744C122.784 24.136 122.891 23.608 123.104 23.16C123.317 22.7013 123.616 22.328 124 22.04C124.384 21.7413 124.843 21.5173 125.376 21.368C125.92 21.2187 126.523 21.144 127.184 21.144H130.912V32.616H128.96V28.2H127.184L124.256 32.616H122L125.232 27.912C124.4 27.7093 123.781 27.3413 123.376 26.808C122.981 26.264 122.784 25.576 122.784 24.744ZM128.96 26.584V22.824H127.168C126.443 22.824 125.861 22.968 125.424 23.256C124.997 23.5333 124.784 24.0133 124.784 24.696C124.784 25.368 124.976 25.8533 125.36 26.152C125.744 26.44 126.288 26.584 126.992 26.584H128.96Z" fill="white"/>
<path d="M138.532 29.112H135.028V32.616H133.172V24.312H135.028V27.608H138.532V24.312H140.388V32.616H138.532V29.112Z" fill="white"/>
<path d="M142.245 31.112C142.49 30.8987 142.682 30.6053 142.821 30.232C142.97 29.8587 143.087 29.3947 143.173 28.84C143.258 28.2747 143.322 27.6187 143.365 26.872C143.407 26.1253 143.445 25.272 143.477 24.312H149.557V31.112H150.805V34.984H149.189L149.045 32.616H143.317L143.173 34.984H141.541V31.112H142.245ZM147.701 31.112V25.816H145.077C145.023 27.128 144.933 28.216 144.805 29.08C144.687 29.9333 144.49 30.6107 144.213 31.112H147.701Z" fill="white"/>
<path d="M158.96 32.008C158.842 32.0827 158.698 32.168 158.528 32.264C158.357 32.3493 158.154 32.4293 157.92 32.504C157.685 32.5787 157.413 32.6427 157.104 32.696C156.794 32.7493 156.442 32.776 156.048 32.776C154.522 32.776 153.381 32.3973 152.624 31.64C151.877 30.8827 151.504 29.8213 151.504 28.456C151.504 27.784 151.605 27.1813 151.808 26.648C152.01 26.1147 152.293 25.6667 152.656 25.304C153.018 24.9307 153.45 24.648 153.952 24.456C154.453 24.2533 155.002 24.152 155.6 24.152C156.218 24.152 156.773 24.2533 157.264 24.456C157.765 24.6587 158.176 24.9627 158.496 25.368C158.816 25.7733 159.034 26.2747 159.152 26.872C159.28 27.4693 159.285 28.168 159.168 28.968H153.424C153.498 29.7253 153.749 30.296 154.176 30.68C154.602 31.0533 155.269 31.24 156.176 31.24C156.837 31.24 157.386 31.16 157.824 31C158.272 30.8293 158.65 30.6533 158.96 30.472V32.008ZM155.6 25.624C155.056 25.624 154.597 25.7893 154.224 26.12C153.85 26.4507 153.605 26.9413 153.488 27.592H157.392C157.413 26.92 157.264 26.424 156.944 26.104C156.624 25.784 156.176 25.624 155.6 25.624Z" fill="white"/>
<path d="M163.467 29.24H162.747V32.616H160.891V24.312H162.747V27.736H163.531L166.171 24.312H168.123L164.987 28.312L168.251 32.616H166.059L163.467 29.24Z" fill="white"/>
<path d="M172.918 32.776C172.246 32.776 171.643 32.68 171.11 32.488C170.576 32.2853 170.123 32.0027 169.75 31.64C169.376 31.2667 169.088 30.8133 168.886 30.28C168.683 29.7467 168.582 29.1387 168.582 28.456C168.582 27.784 168.683 27.1813 168.886 26.648C169.088 26.1147 169.376 25.6667 169.75 25.304C170.123 24.9307 170.582 24.648 171.126 24.456C171.67 24.2533 172.278 24.152 172.95 24.152C173.526 24.152 174.027 24.216 174.454 24.344C174.891 24.472 175.238 24.632 175.494 24.824V26.36C175.163 26.1467 174.8 25.9813 174.406 25.864C174.022 25.7467 173.574 25.688 173.062 25.688C171.344 25.688 170.486 26.6107 170.486 28.456C170.486 30.3013 171.328 31.224 173.014 31.224C173.558 31.224 174.022 31.1653 174.406 31.048C174.8 30.92 175.163 30.76 175.494 30.568V32.104C175.216 32.2853 174.87 32.4453 174.454 32.584C174.038 32.712 173.526 32.776 172.918 32.776Z" fill="white"/>
<path d="M182.847 21.144V32.616H180.911V21.144H182.847Z" fill="white"/>
<path d="M185.301 21.144H189.173C189.984 21.144 190.736 21.2347 191.429 21.416C192.133 21.5973 192.741 21.896 193.253 22.312C193.776 22.728 194.181 23.2773 194.469 23.96C194.768 24.6427 194.917 25.4853 194.917 26.488C194.917 27.5013 194.768 28.392 194.469 29.16C194.181 29.9173 193.771 30.552 193.237 31.064C192.715 31.576 192.091 31.9653 191.365 32.232C190.651 32.488 189.867 32.616 189.013 32.616H185.301V21.144ZM187.237 22.824V30.952H189.077C189.643 30.952 190.155 30.8667 190.613 30.696C191.083 30.5253 191.483 30.264 191.813 29.912C192.155 29.56 192.416 29.112 192.597 28.568C192.789 28.0133 192.885 27.3573 192.885 26.6C192.885 25.8533 192.795 25.24 192.613 24.76C192.432 24.2693 192.176 23.88 191.845 23.592C191.525 23.304 191.141 23.1067 190.693 23C190.245 22.8827 189.76 22.824 189.237 22.824H187.237Z" fill="white"/>
</svg>
